/* XPM */
static const char *gallina_64[] = {
/* columns rows colors chars-per-pixel */
"64 64 211 2 ",
"   c #2A1D18",
".  c #35231C",
"X  c #2F221C",
"o  c #352423",
"O  c #3D2523",
"+  c #3C2B26",
"@  c #52331E",
"#  c #662C1E",
"$  c #412624",
"%  c #442925",
"&  c #462E29",
"*  c #4B2D29",
"=  c #4A2C27",
"-  c #4A312A",
";  c #54352A",
":  c #59362A",
">  c #55392E",
",  c #5D3C2E",
"<  c #563624",
"1  c #4A3D39",
"2  c #473B39",
"3  c #543D34",
"4  c #5B3C31",
"5  c #662C23",
"6  c #613D2E",
"7  c #67372A",
"8  c #773824",
"9  c #663A36",
"0  c #7C3D32",
"q  c #5C4235",
"w  c #5C443B",
"e  c #53433C",
"r  c #5F412F",
"t  c #64402E",
"y  c #6D452A",
"u  c #77482E",
"i  c #654333",
"p  c #6A4434",
"a  c #6B4A36",
"s  c #734C36",
"d  c #764E37",
"f  c #7C5337",
"g  c #765239",
"h  c #7A5339",
"j  c #7A553C",
"k  c #4D3D41",
"l  c #4C474C",
"z  c #514D54",
"x  c #7B5542",
"c  c #7D5A44",
"v  c #795C4D",
"b  c #685955",
"n  c #735E53",
"m  c #655149",
"M  c #7A6256",
"N  c #5B6574",
"B  c #5D6977",
"V  c #5D616C",
"C  c #6E686C",
"Z  c #6A6264",
"A  c #766A67",
"S  c #636D7B",
"D  c #656B75",
"F  c #69727D",
"G  c #77757B",
"H  c #803D1D",
"J  c #843E30",
"K  c #833D2B",
"L  c #8F471E",
"P  c #BE5B1E",
"I  c #87442E",
"U  c #96452A",
"Y  c #884A34",
"T  c #835536",
"R  c #82573A",
"E  c #845A3B",
"W  c #895C3A",
"Q  c #985131",
"!  c #A64B2A",
"~  c #AB5728",
"^  c #B25628",
"/  c #A65932",
"(  c #B15E33",
")  c #8F623E",
"_  c #92653F",
"`  c #9D6136",
"'  c #A96338",
"]  c #B86A35",
"[  c #B9723B",
"{  c #B3632D",
"}  c #CB6C22",
"|  c #C5662C",
" . c #D8762D",
".. c #C66831",
"X. c #CB7233",
"o. c #C6773E",
"O. c #D57933",
"+. c #D26F2B",
"@. c #865E40",
"#. c #8A6246",
"$. c #946541",
"%. c #956842",
"&. c #9B6C43",
"*. c #8C6D5B",
"=. c #B37E5E",
"-. c #8F6F60",
";. c #8B7B73",
":. c #877B79",
">. c #99776B",
",. c #CF803F",
"<. c #DD8133",
"1. c #F48729",
"2. c #F28B33",
"3. c #90807A",
"4. c #A3827B",
"5. c #F29C47",
"6. c #EF9B44",
"7. c #F5AA5A",
"8. c #F5AB60",
"9. c #6C7888",
"0. c #737D8B",
"q. c #757B86",
"w. c #747E90",
"e. c #75808E",
"r. c #7B838E",
"t. c #768293",
"y. c #7A8494",
"u. c #7C8896",
"i. c #7F8999",
"p. c #8F8884",
"a. c #838994",
"s. c #838D9C",
"d. c #87909D",
"f. c #8A929D",
"g. c #93949A",
"h. c #978D89",
"j. c #B29586",
"k. c #AD9289",
"l. c #8592A2",
"z. c #8A95A4",
"x. c #8E99A7",
"c. c #8D9AAA",
"v. c #9199A5",
"b. c #939DAB",
"n. c #9D9EA9",
"m. c #989BA3",
"M. c #99A3AE",
"N. c #96A1AF",
"B. c #96A1B1",
"V. c #9BA5B3",
"C. c #9FA9B8",
"Z. c #9FA8B5",
"A. c #ABA5A6",
"S. c #A7A6AC",
"D. c #B7AEAC",
"F. c #A2AAB7",
"G. c #A3ADBB",
"H. c #A6ABB6",
"J. c #A7B1BD",
"K. c #ABB2BD",
"L. c #BBB9B9",
"P. c #C5A595",
"I. c #CEC4BE",
"U. c #ADB5C2",
"Y. c #AEB9C5",
"T. c #AEB9C8",
"R. c #B1B7C0",
"E. c #B2BAC5",
"W. c #B4BDCB",
"Q. c #B8BECB",
"!. c #B7C1CC",
"~. c #BBC3CD",
"^. c #BFC8CF",
"/. c #BEC6D1",
"(. c #C1C6CE",
"). c #C5C8C9",
"_. c #C1C6D2",
"`. c #C4CAD4",
"'. c #C9CED5",
"]. c #C9CFD8",
"[. c #C7CED8",
"{. c #CCD1D7",
"}. c #CCD2DB",
"|. c #D1D5DD",
" X c #D4D9DE",
".X c #D9D8DA",
"XX c #D1CDCB",
"oX c #E1D9D2",
"OX c #DFE0DD",
"+X c #E3E2DF",
"@X c #D6DAE1",
"#X c #DADDE3",
"$X c #D7DBE4",
"%X c #DEE1E6",
"&X c #DFE2E9",
"*X c #E1E2E6",
"=X c #E2E5EA",
"-X c #E6E9EC",
";X c #E9EBEE",
":X c #E8E8E6",
">X c #ECEEF1",
",X c #E7ECF0",
"<X c #EEF1F3",
"1X c #F2F4F5",
"2X c #F4F6F8",
"3X c #F6F9FA",
"4X c #FBFCFE",
"5X c #FBFCFD",
"6X c #FAFCFD",
"7X c None",
"8X c black",
/* pixels */
"7X7X7X7X7X7X7X7X7X7X7X7X7X7X7X7X7X7X7X7X7X7X7X7X7X7X7X7X7X7X7X7X7X7X7X7X7X7X7X7X7X7X7X7X7X7X7X7X7X7X7X7X7X7X7X7X7X7X7X7X7X7X7X7X",
"7X7X7X7X7X7X7X7X7X7X7X7X7X7X7X7X7X7X7X7X7X7X7X7X7X7X7X7X7X7X7X7X7X7X7X7X7X7X7X7X7X7X7X7X7X7X7X7X7X7X7X7X7X7X7X7X7X7X7X7X7X7X7X7X",
"7X7X7X7X7X7X7X7X7X7X7X7X7X7X7X7X7X7X7X7X7X7X7X7X7X7X7X7X7X7X7X7X7X7X7X7X7X7X7X7X7X7X7X7X7X7X7X7X7X7X7X7X7X7X7X7X7X7X7X7X7X7X7X7X",
"7X7X7X7X7X7X7X7X7X7X7X7X7X7X7X7X7X7X7X7X7X7X7X7X7X7X7X7X7X7X7X7X7X7X7X7X7X7X7X7X7X7X7X7X7X7X7X7X7X7X7X7X7X7X7X7X7X7X7X7X7X7X7X7X",
"7X7X7X7X7X7X7X7X7X7X7X7X7X7X7X7X7X7X7X7X7X7X7X7X7X7X7X7X7X7X7X7X7X7X7X7X7X7X7X7X7X7X7X7X7X7X7X7X7X7X7X7X7X7X7X7X7X7X7X7X7X7X7X7X",
"7X7X7X7X7X7X7X7X7X7X7X7X7X7X7X7X7X7X7X7X7X7X7X7X7X7X7X7X7X7X7X7X7X7X7X7X7X7X7X7X7X7X7X7X7X7X7X7X7X7X7X7X7X7X7X7X7X7X7X7X7X7X7X7X",
"7X7X7X7X7X7X7X7X7X7X7X7X7X7X7X7X7X7X7X7X7X7X2 w : g j g , 3 1 7X7X7X7X7X7X7X7X7X7X7X7X7X7X7X7X7X7X7X7X7X7X7X7X7X7X7X7X7X7X7X7X7X",
"7X7X7X7X7X7X7X7X7X7X7X7X7X7X7X7X7X7X7X7X7X4 d #.%.T W $.%.E R ; w 7X7X7X7X7X7X7X7X7X7X7X7X7X7X7X7X7X7X7X7X7X7X7X7X7X7X7X7X7X7X7X",
"7X7X7X7X7X7X7X7X7X7X7X7X7X7X7X7X7X7X7X7X, s d y T W &.&.&.$.T d p 3 7X7X7X7X7X7X7X7X7X7X7X7X7X7X7X7X7X7X7X7X7X7X7X7X7X7X7X7X7X7X",
"7X7X7X7X7X7X7X7X7X7X7X7X7X7X7X7X7X7X7X2 , g E E _ ) f $.E _ T #.p i w 7X7X7X7X7X7X7X7X7X7X7X7X7X7X7X7X7X7X7X7X7X7X7X7X7X7X7X7X7X",
"7X7X7X7X7X7X7X7X7X7X7X7X7X7X7X7X7X7X7X$ ; 4 ; ; , E R R R %._ E : a : O 7X7X7X7X7X7X7X7X7X7X7X7X7X7X7X7X7X7X7X7X7X7X7X7X7X7X7X7X",
"7X7X7X7X7X7X7X7X7X7X7X7X7X7X7X7X7X7XO $ O > a p p ; ; i a R ) f p 6 6 O 7X7X7X7X7X7X7X7X7X7X7X7X7X7X7X7X7X7X7X7X7X7X7X7X7X7X7X7X",
"7X7X7X7X7X7X7X7X7X7X7X7X3 c p x s d @.E g s a q , 6 , i t 4 > ; p ; t * 7X7X7X7X7X7X7X7X7X7X7X7X7X7X7X7X7X7X7X7X7X7X7X7X7X7X7X7X",
"7X7X7X7X7X7X7X7X7X7X7X> * O $ O o - - ; @.W E $.E f f : > 4 i ; $ $ 4 ; 7X7X7X7X7X7X7X7X7X7X7X7X7X7X7X7X7X7X7X7X7X7X7X7X7X7X7X7X",
"7X7X7X7X7X7X7X7X7X7X7X& 4 4 * k a.J.R.H.C C C b , t E #.s a q % $ * % O 7X7X7X7X7X7X7X7X7X7X7X7X7X7X7X7X7X7X7X7X7X7X7X7X7X7X7X7X",
"7X7X7X7X7X7X7X7X7X7X7X7X7X- k N [.-X}.Q.W.W.W.U.n.n.g.& > s g g s = % & 7X7X7X7X7X7X7X7X7X7X7X7X7X7X7X7X7X7X7X7X7X7X7X7X7X7X7X7X",
"7X7X7X7X7X7X7X7X7X7X7X7X7X7Xr.}.6X5X5X6X5X5X&X}.}.}.!.Q.W.n.G m , g g , 2 7X7X7X7X7X7X7X7X7X7X7X7X7X7X7X7X7X7X7X7X7X7X7X7X7X7X7X",
"7X7X7X7X7X7X7X7X7X7X7X7X7X7Xb.2X5X5X5X5X5X5X5X3X3X2X;X-X%X!.!.H.n.Z q i i > - 7X7X7X7X7X7X7X7X7X7Xa. X~.7X7X7X7X7X7X7X7X7X7X7X7X",
"7X7X7X7X7X7X7X7X7X7X7X7X7Xl D %X5X5X5X5X.XL.L.g.g.m.*X5X5X5X#X[.`.!.S.z o r i 4 7X7X7X7X7X7X7X7Xn.;X=X}.7X7X7X7X7X7X7X7X7X7X7X7X",
"7X7X7X7X7X7X7X7X7X7X7X7Xn a M A :X:X1XOX;.c y e + 7 ;..X;X-X&X*X&X@XQ.M.l $ - i 7X7X7X7X7X7X7Xr.@X2X&XQ.q.d.r.7X7X7X7X7X7X7X7X7X",
"7X7X7X7X7X7X7X7X7X7X7X7XM x   . L.L.p.A -.E @ j.b . y 3.D.A.A.A.A.{.@XR.z , 4 O 7X7X7X7X7X7Xa. X5X=X@XG.s.-X X7X7X7X7X7X7X7X7X7X",
"7X7X7X7X7X7X7X7X7X7X7X7Xv x Q ` =.I.I.m -.R < 1 o X y b :.D..X.XL.A |.E.V & 7X7X7X7X7X7X7X7XK.1X<X*X`.B.%X<X*XD 7X7X7X7X7X7X7X7X",
"7X7X7X7X7X7X7X7X7X7X7X7Xu / 5.7.2.O.oXh.*.#.u     < c A.>X<X>X&X=Xp. X!.z.7X7X7X7X7X7X7X7Xq.=X6X&X&XR.(.2X&X[.S 7X7X7X7X7X7X7X7X",
"7X7X7X7X7X7X7X7X7X7X7XT [ 8.6.} } 1.P.+X;.*.*.j j #.v XX5X5X6X;X&X&X'.`.b.7X7X7X7X7X7X7X7XG.@X;X*X|.[.3X;X#X~.7X7X7X7X7X7X7X7X7X",
"7X7X7X7X7X7X7X7X7X7X7X{ 6.5.1.1.1.2.+.j.:Xn q w w > ).5X5X5X5X2X*X&X'.W.Y.e.7X7X7X7X7X7Xv.;X&X X@XU.-X>X*X~.z.7X7X7X7X7X7X7X7X7X",
"7X7X7X7X7X7X7X7X7X7XH ~ } } } P ^ ^ ! k.4X5X6X5X5X5X5X5X5X5X3X=X1X*X|.]./.U.t.7X7X7X7Xf. X1X;X}.R.Q.;X*X&X(.v.S.7X7X7X7X7X7X7X7X",
"7X7X7X7X7X7X7X7X7X7X7X7X8 ~ | | +...4.|.1X5X5X5X5X5X5X5X6X6X3X-X=X&X}.!.#XE.B.G.G.K.K.|.1X6X=X`.-X=XU.#X}.E.-X(.7X7X7X7X7X7X7X7X",
"7X7X7X7X7X7X7X7X7X7X7X7X7Xu L ^ ^ >.R.@X-X6X5X4X4X5X5X5X3X>X<X=X|.&X-X`.U.Y.K.}.$X-X<X=X>X-X&X3X3X,XF.`.~.>X2X_.7X7X7X7X7X7X7X7X",
"7X7X7X7X7X7X7X7X7X7X7X7X7X7Xq.n.v.Z.}.&X&X=X<X2X3X5X2X3X>X-X-X*X~.{.;X@XG.`.@X-X<X<X2X3X3X3X3X1X=X|.G.Y.=X3X-XK.7X7X7X7X7X7X7X7X",
"7X7X7X7X7X7X7X7X7X7X7X7X7XF U.Q.U.T.`.|.@X&X&X&X,X2X=X#X1X2X3X=X|._.~.!.[.<X>X6X1X>X<X>X3X5X3X>X&X`.-X}.|.;X@XG.7X7X7X7X7X7X7X7X",
"7X7X7X7X7X7X7X7X7X7X7X7X7XK.=X`.|._.!.|.@X>X;X=X;X6X>X#X~.|.>X3X`.=X-X=X-X>X2X3X5X;X>X6X;X*X1X<X{.1X3X#X!.|.E.S 7X7X7X7X7X7X7X7X",
"7X7X7X7X7X7X7X7X7X7X7X7Xr.'.1X&X#X&X#X>X3X2X<X*X2X=X5X;X`.$X}.}.|.2X5X5X5X3X1X'.|.5X5X1X;X1X2X5X2X>X=X`.F.W.V.B 7X7X7X7X7X7X7X7X",
"7X7X7X7X7X7X7X7X7X7X7X7X).;X`.#X<X-X#X1X;X2X<X<X5X!.%X=X}.-X;X>X<X5X5X5X4X4X5X2X-X'.%X=X1X4X4X1X=X;X=XJ.W.F.0.u.7X7X7X7X7X7X7X7X",
"7X7X7X7X7X7X7X7X7X7X7X7XM.H.U.&X2X~.Q.;X<X$X%X6X X@X X{.*X3X4X5X5X5X5X5X5X5X5X6X4X3X$XF.K.=X-X*X*X-XK.x.G.C.F.G.7X7X7X7X7X7X7X7X",
"7X7X7X7X7X7X7X7X7X7X7X7XV.&X|.^._.`.`.{.&X}. X|.#X>X<X=X-X5X5X5X5X5X5X5X5X4X4X<X3X2X>X].E.d.G.K.[.'.&X_.V.}.@Xv.7X7X7X7X7X7X7X7X",
"7X7X7X7X7X7X7X7X7X7X7X0.|.-X&X~._.>X#X~.!.=X;X$X<X;X3X|.=X5X5X5X5X5X5X5X5X3X6X3X#X<X#X}.&X@X{.Q.d.[.}.U.G.}.E.S 7X7X7X7X7X7X7X7X",
"7X7X7X7X7X7X7X7X7X7X7XK.@X@X2X=X1X5X>X-X&X3X5X4X<X-X1X~.#X2X6X5X5X5X2X6X6X-X%X1X5X`.!.-X2X5X5X-XF.G.W.b.!.G.t.7X7X7X7X7X7X7X7X7X",
"7X7X7X7X7X7X7X7X7X7X7Xy.&X3X>X>X;X;X1X>X>X5X5X4X3X3X3XK.~.;X6X1X2X6X=X1X5X2X}.@X-X}. X`. X#X#X|.u.G.J.J.U.M.7X7X7X7X7X7X7X7X7X7X",
"7X7X7X7X7X7X7X7X7X7X7XM.1X2X3X3X;X>X6X;X2X5X5X1X5X1X3XK.F. X1X4X=X3X<X*X>X3X>X!.}.@X>X<X$XW.b.s.0.U.Q.G.e.N 7X7X7X7X7X7X7X7X7X7X",
"7X7X7X7X7X7X7X7X7X7X7XR.#X`.&X6X3X6X6X2X5X6X3X=X>X>X3X}.u.~.*X>X$X>X5X]._.'.|.@X|.;X3X5X6X5X#Xd.!.}.U.B.i.7X7X7X7X7X7X7X7X7X7X7X",
"7X7X7X7X7X7X7X7X7X7X7Xy.s.Q.'.5X=X1X1X=X5X2X<X3X-X3X3X}.M.V.`.*X|.@X-X[.=X$X#X-X#X~.&X1X2X-X#Xs.`.#X[.W.x.7X7X7X7X7X7X7X7X7X7X7X",
"7X7X7X7X7X7X7X7X7X7X7X7Xu.}.=X-X-X1X-X1X>X&X<X5X6X6X>X XU.0.J.'.&X}.].[.`.&X1X5X5X&X!.!.`.`.f.K.|.|.[.E.r.7X7X7X7X7X7X7X7X7X7X7X",
"7X7X7X7X7X7X7X7X7X7X7X7Xy.[.3X=X2X5X>X6X<X=X3X6X6X<X1X=X~.U.s.G.}.&X&X&X[.[.@X;X3X=X}.V.y.i.G.}.&X|.`.N.7X7X7X7X7X7X7X7X7X7X7X7X",
"7X7X7X7X7X7X7X7X7X7X7X7X7XK.&X1X2X3X4X6X1X;X6X>X>X-X<X-X#X_.K.s.G.E._.}.*X`.v.`.}._.V.t.b.Q.|.&X#X!.U.z.7X7X7X7X7X7X7X7X7X7X7X7X",
"7X7X7X7X7X7X7X7X7X7X7X7X7Xq.}.=X*X>X<X;X1X=X1X3X-X-X2X=X*X=X`.U.s.l.C.Y.E.E.M.0.z.l.s.U.W.`.&X|.}.Q.B.0.7X7X7X7X7X7X7X7X7X7X7X7X",
"7X7X7X7X7X7X7X7X7X7X7X7X7XF Z.#X|.@X<X X2X>X X<X5X*X;X1X1X2X#X!.Q.V.f.y.t.u.l.V.Q.Q.W./.|.@X].#XQ.E.u.7X7X7X7X7X7X7X7X7X7X7X7X7X",
"7X7X7X7X7X7X7X7X7X7X7X7X7X7Xu.C.`.&X'.[.}.-X[.`.-X=X#X=X>X*X*X&X@X`.E.Y.T.Y.E.Q.~.}.&X|.~.}.#X@XW.x.7X7X7X7X7X7X7X7X7X7X7X7X7X7X",
"7X7X7X7X7X7X7X7X7X7X7X7X7X7X7X9.U.$X`.$X#X~.}.W.W.`.@X*X*X&X*X@X*X&X|.@X|.|.|.|.'.&X*X*X/./.`.W.z.7X7X7X7X7X7X7X7X7X7X7X7X7X7X7X",
"7X7X7X7X7X7X7X7X7X7X7X7X7X7X7X7Xe.G.`.}. X$X*X$X`.|.&X$X@X&X}.|.=X*X&X-X;X*X&X*X=X}.~.'.[.W.Y.b.B 7X7X7X7X7X7X7X7X7X7X7X7X7X7X7X",
"7X7X7X7X7X7X7X7X7X7X7X7X7X7X7X7X7Xt.G.E.}.~.|.$X#X X@X#X~./.!.}.;X1X=X;X3X<X*X&X*X~.W.!./.Q.b.S 7X7X7X7X7X7X7X7X7X7X7X7X7X7X7X7X",
"7X7X7X7X7X7X7X7X7X7X7X7X7X7X7X7X7X7XB t.F.`.Q.}.~. X`.$X#X`./.~.#X>X>X2X;X-X-X X[.F.U.Q.Y.x.7X7X7X7X7X7X7X7X7X7X7X7X7X7X7X7X7X7X",
"7X7X7X7X7X7X7X7X7X7X7X7X7X7X7X7X7X7X7X7X9.z.b.K.K.!.!.!.`.~.W.b.@X*X*X-X1X=X}.|.Q.s.Z.F.s.7X7X7X7X7X7X7X7X7X7X7X7X7X7X7X7X7X7X7X",
"7X7X7X7X7X7X7X7X7X7X7X7X7X7X7X7X7X7X7X7X7X7X7XS y.x.x.G.E.W.W.Q.M.`.#X&X$X#X/.!.b.s.u.7X7X7X7X7X7X7X7X7X7X7X7X7X7X7X7X7X7X7X7X7X",
"7X7X7X7X7X7X7X7X7X7X7X7X7X7X7X7X7X7X7X7X7X7X7X7Xs.l.c.w.0.t.l.z.s.0.K.E.Y.E.G.V.S 7X7X7X7X7X7X7X7X7X7X7X7X7X7X7X7X7X7X7X7X7X7X7X",
"7X7X7X7X7X7X7X7X7X7X7X7X7X7X7X7X7X7X7X7X7X7X7X7X7X0.y.w.e.7X7X7X7X7X7Xa.r.s.N 7X7X7X7X7X7X7X7X7X7X7X7X7X7X7X7X7X7X7X7X7X7X7X7X7X",
"7X7X7X7X7X7X7X7X7X7X7X7X7X7X7X7X7X7X7X7X7X7X7X7X7X9 I 0 7X7X7X7X7X7X7X7XQ ( 7X7X7X7X7X7X7X7X7X7X7X7X7X7X7X7X7X7X7X7X7X7X7X7X7X7X",
"7X7X7X7X7X7X7X7X7X7X7X7X7X7X7X7X7X7X7X7X7X# 5 5 I ! ^ ! J 7X7X7X7X7X# I <.O.5 7X7X7X7X7X7X7X7X7X7X7X7X7X7X7X7X7X7X7X7X7X7X7X7X7X",
"7X7X7X7X7X7X7X7X7X7X7X7X7X7X7X7X7X7X7X' ] X.! Q ] | U U U 7 7X7X[ { X.<. . .O.( 7X7X7X7X7X7X7X7X7X7X7X7X7X7X7X7X7X7X7X7X7X7X7X7X",
"7X7X7X7X7X7X7X7X7X7X7X7X7X7X7X7X7X7X7XY I J 8 ,.X.K 7X7X7X7X9 ] ../ [ O./ I ( ..o.7X7X7X7X7X7X7X7X7X7X7X7X7X7X7X7X7X7X7X7X7X7X7X",
"7X7X7X7X7X7X7X7X7X7X7X7X7X7X7X7X7X7X7X7X7X7X7 U 7X7X7X7X7X7X7X7X7X8 <.~ 7X7X7X7X7X7X7X7X7X7X7X7X7X7X7X7X7X7X7X7X7X7X7X7X7X7X7X7X",
"7X7X7X7X7X7X7X7X7X7X7X7X7X7X7X7X7X7X7X7X7X7X7X7X7X7X7X7X7X7X7X7X7Xp Y 7X7X7X7X7X7X7X7X7X7X7X7X7X7X7X7X7X7X7X7X7X7X7X7X7X7X7X7X7X",
"7X7X7X7X7X7X7X7X7X7X7X7X7X7X7X7X7X7X7X7X7X7X7X7X7X7X7X7X7X7X7X7X7X7X7X7X7X7X7X7X7X7X7X7X7X7X7X7X7X7X7X7X7X7X7X7X7X7X7X7X7X7X7X7X",
"7X7X7X7X7X7X7X7X7X7X7X7X7X7X7X7X7X7X7X7X7X7X7X7X7X7X7X7X7X7X7X7X7X7X7X7X7X7X7X7X7X7X7X7X7X7X7X7X7X7X7X7X7X7X7X7X7X7X7X7X7X7X7X7X",
"7X7X7X7X7X7X7X7X7X7X7X7X7X7X7X7X7X7X7X7X7X7X7X7X7X7X7X7X7X7X7X7X7X7X7X7X7X7X7X7X7X7X7X7X7X7X7X7X7X7X7X7X7X7X7X7X7X7X7X7X7X7X7X7X"
};
