/* XPM */
static char *_8c6e0976c734db7c5f19175a22961e2KvFHXbnxCBdKh6U0[] = {
/* columns rows colors chars-per-pixel */
"320 32 53 1 ",
"  c None",
". c black",
"X c gray13",
"o c #2C2227",
"O c #D78C77",
"+ c #EB9486",
"@ c #EDAF97",
"# c #F1B29E",
"$ c #DBB1A6",
"% c #DCB2AA",
"& c #DFB3AB",
"* c #DEB5A8",
"= c #DFB2AD",
"- c #E6B4A0",
"; c #E1B5AD",
": c #E1B8AA",
"> c #E3BAAD",
", c #E2B8AF",
"< c #FBD3B1",
"1 c #FBD2B3",
"2 c #FDD5B5",
"3 c #FDD7B6",
"4 c #FED8B7",
"5 c #EAC6C2",
"6 c #FAF3E5",
"7 c #FBF2E7",
"8 c #FDF3E6",
"9 c #F9F5E6",
"0 c #FBF4E6",
"q c #FDF4E4",
"w c #FEF5E6",
"e c #FDF7E7",
"r c #FFF8E4",
"t c #FEF8E6",
"y c #FBF4E8",
"u c #FAF6E8",
"i c #F9F4EA",
"p c #FAF6EA",
"a c #FEF4E8",
"s c #FDF6E9",
"d c #FDF6EB",
"f c #FEF7EA",
"g c #FAF5EC",
"h c #FCF6ED",
"j c #FEF7EC",
"k c #FEF7EE",
"l c #FDF9E8",
"z c #FDF8EA",
"x c #FDF8EE",
"c c #FEF9EF",
"v c #FBF8F0",
"b c #FEF8F3",
"n c white",
/* pixels */
"                                                                                                                                                                                                                                                                                                                                ",
"                                                                                                                                                                                                                                                                                                                                ",
"                                                                                                                                                                                                                                                                                                                                ",
"                                                                                                                                                                                                                                                                                                                                ",
"    XX          XX                  XX          XX                  XX          XX                                                                                                                                                  XX          XX                  XX          XX                  XX          XX              ",
"   X2XXXXXXXXXXX2X                 X2XXXXXXXXXXX2X                 X2XXXXXXXXXXX2X                  XX          XX                  XX          XX                  XX          XX                  XX          XX                 X2XXXXXXXXXXX2X                 X2XXXXXXXXXXX2X                 X2XXXXXXXXXXX2X              ",
"   XO2X22-2-22X2OOX                XO2X22-2-22X2OOX                XO2X22-2-22X2OOX                X2XXXXXXXXXXX2X                 X2XXXXXXXXXXX2X                 X2XXXXXXXXXXX2X                 X2XXXXXXXXXXX2X                 XO2X22-2-22X2OOX                XO2X22-2-22X2OOX                XO2X22-2-22X2OOX             ",
"   XO2X22-2-22X2OOX                XO2X22-2-22X2OOX                XO2X22-2-22X2OOX                XO2X22-2-22X2OOX                XO2X22-2-22X2OOX                XO2X22-2-22X2OOX                XO2X22-2-22X2OOX                XO2X22-2-22X2OOX                XO2X22-2-22X2OOX                XO2X22-2-22X2OOX             ",
"   XO2222-2-22222OX                XO2222-2-22222OX                XO2222-2-22222OX                XO2X22-2-22X2OOX                XO2X22-2-22X2OOX                XO2X22-2-22X2OOX                XO2X22-2-22X2OOX                XO2222-2-22222OX                XO2222-2-22222OX                XO2222-2-22222OX             ",
"   X2222222-22222OX                X2222222-22222OX                X2222222-22222OX                XO2222-2-22222OX                XO2222-2-22222OX                XO2222-2-22222OX                XO2222-2-22222OX                X2222222-22222OX                X2222222-22222OX                X2222222-22222OX             ",
"   X22221122222222X                X22221122222222X                X22221122222222X                X2222222-22222OX                X2222222-22222OX                X2222222-22222OX                X2222222-22222OX                X22221122222222X                X22221122222222X                X22221122222222X             ",
"  X222222222222222X               X222222222222222X               X222222222222222X                X22221122222222X                X22221122222222X                X22221122222222X                X22221122222222X               X222222222222222X               X222222222222222X               X222222222222222X             ",
"  X222n.22222n.222X               X222n.22222n.222X               X222n.22222n.222X               X222222222222222X               X222222222222222X               X222222222222222X               X222222222222222X               X222n.22222n.222X               X222n.22222n.222X               X222n.22222n.222X             ",
"  o222..22.22..242X               o222..22.22..242X               o222..22.22..242X               X222n.22222n.222X               X222n.22222n.222X               X222n.22222n.222X               X222n.22222n.222X               o222..22.22..242X               o222..22.22..242X               o222..22.22..242X             ",
"  X2++www.w.www++1X               X2++www.w.www++1X               X2++www.w.www++1X               o222..22.22..242X               o222..22.22..242X               o222..22.22..242X               o222..22.22..242X               X2++www.w.www++1X               X2++www.w.www++1X               X2++www.w.www++1X             ",
"   X++wwwwwwwww++wX                X++wwwwwwwww++wX                X++wwwwwwwww++wX               X2++www.w.www++1X               X2++www.w.www++1X               X2++www.w.www++1X               X2++www.w.www++1X                X++wwwwwwwww++wX                X++wwwwwwwww++wX                X++wwwwwwwww++wX             ",
"   XwwwwwwwwwwwwwX                 XwwwwwwwwwwwwwX                 XwwwwwwwwwwwwwX                 X++wwwwwwwww++wX                X++wwwwwwwww++wX                X++wwwwwwwww++wX                X++wwwwwwwww++wX                XwwwwwwwwwwwwwX                 XwwwwwwwwwwwwwX                 XwwwwwwwwwwwwwX              ",
"    XwawwwwwwwwwX                   XwawwwwwwwwwX                   XwawwwwwwwwwX                  XwwwwwwwwwwwwwX                 XwwwwwwwwwwwwwX                 XwwwwwwwwwwwwwX                 XwwwwwwwwwwwwwX                  XwawwwwwwwwwX                   XwawwwwwwwwwX                   XwawwwwwwwwwX               ",
"     X5wwwwwww,X                     X5wwwwwww,X    XXX              X5wwwwwww,X       XX           XwawwwwwwwwwX                   XwawwwwwwwwwX                   XwawwwwwwwwwX                   XwawwwwwwwwwX                    X5wwwwwww,X                     X5wwwwwww,X       XX            X5wwwwwww,X    XXX         ",
"     Xw,;%%$*:wX  XX                 Xw,;%%$*:wX   X---X             Xw,;%%$*:wX      X--X           X5wwwwwww,X                     X5wwwwwww,X                     X5wwwwwww,X                     X5wwwwwww,X                     Xw,;%%$*:wX                     Xw,;%%$*:wX      X--X           Xw,;%%$*:wX   X---X        ",
"     Xwwwwwwwww#XX--X                Xwwwwwwwww#X   X--X             Xwwwwwwwww#X     X--X           Xw=======w#X         XX         Xw=======w#X                    Xw=======w#X                    Xw=======w#X                    Xwwwwwwwww#X         XX         Xwwwwwwwww#X     X--X           Xwwwwwwwww#X   X--X        ",
"    Xwwwwwwwwhw@-X---X              Xwwwwwwwwhw@-X  X--X            Xwwwwwwwwhw@-X    X--X          Xwwwwwwwwhw@-X       X-X        Xwwwwwwwwhw@-X                  Xwwwwwwwwhw@-X                  Xwwwwwwwwhw@-X                  Xwwwwwwwwhw@-X       X-X        Xwwwwwwwwhw@-X    X--X          Xwwwwwwwwhw@-X  X--X        ",
"    Xwwwaaaawwww-XX--X              Xwwwaaaawwww-X  Xr-X            Xwwwaaaawwww-X    XrX           Xwwwaaaawwww-X      X--X        Xwwwaaaawwww-X                  Xwwwaaaawwww-X                  Xwwwaaaawwww-X                  Xwwwaaaawwww-X      X--X        Xwwwaaaawwww-X    XrX           Xwwwaaaawwww-X  Xr-X        ",
"    Xwwwwwwwwwww-X Xr-X             Xwwwwwwwwwww-X  Xz-X            Xwwwwwwwwwww-X   Xr-X           Xwwwwwwwwwww-X      XrXX        Xwwwwwwwwwww-X          X       Xwwwwwwwwwww-X                  Xwwwwwwwwwww-X          X       Xwwwwwwwwwww-X      XrXX        Xwwwwwwwwwww-X   Xr-X           Xwwwwwwwwwww-X  Xz-X        ",
"    Xwww6Xwwww-wwXX Xz-X            Xwww6Xwwww-wwXX Xz-X            Xwww6Xwwww-wwXX  Xz-X           Xwww6Xwwww-wwXX    Xr-X         Xwww6Xwwww-wwXX       XX-X      Xwww6Xwwww-wwXX                 Xwww6Xwwww-wwXX       XX-X      Xwww6Xwwww-wwXX    Xr-X         Xwww6Xwwww-wwXX  Xz-X           Xwww6Xwwww-wwXX Xz-X        ",
"    Xwww9Xwwwi-wwzzXXz-X            Xwww9Xwwwi-wwzzXXz-X            Xwww9Xwwwi-wwzzXXz-X            Xwww9Xwwwi-wwzzX  Xz-X          Xwww9Xwwwi-wwzzX     Xr--X      Xwww9Xwwwi-wwzzX                Xwww9Xwwwi-wwzzX     Xr--X      Xwww9Xwwwi-wwzzX  Xz-X          Xwww9Xwwwi-wwzzXXz-X            Xwww9Xwwwi-wwzzXXz-X        ",
" XXXX-wwiXwzaXXXX-zXzr-X         XXXX-wwiXwzaXXXX-zXzr-X         XXXX-wwiXwzaXXXX-zXzr-X         XXXX-wwiXwzaXXXX-zXXXr-X        XXXX-wwiXwzaXXXX-zXXXXXXr--X    XXXX-wwiXwzaXXXX-zXXXXXXXXXXXX  XXXX-wwiXwzaXXXX-zXXXXXXr--X    XXXX-wwiXwzaXXXX-zXXXr-X        XXXX-wwiXwzaXXXX-zXzr-X         XXXX-wwiXwzaXXXX-zXzr-X        ",
"Xi999XwwgXwiX6vcc-zXz--X        Xi999XwwgXwiX6vcc-zXz--X        Xi999XwwgXwiX6vcc-zXz--X        Xi999XwwgXwiX6vcc-zXz---X       Xi999XwwgXwiX6vcc-zXzrrrr-XX    Xi999XwwgXwiX6vcc-zXzrrrrrrr---XXi999XwwgXwiX6vcc-zXzrrrr-XX    Xi999XwwgXwiX6vcc-zXz---X       Xi999XwwgXwiX6vcc-zXz--X        Xi999XwwgXwiX6vcc-zXz--X        ",
"X-a99XwwhXwzX-wzz--z--X         X-a99XwwhXwzX-wzz--z--X         X-a99XwwhXwzX-wzz--z--X         X-a99XwwhXwzX-wzz--z---X        X-a99XwwhXwzX-wzz--z-----X      X-a99XwwhXwzX-wzz--z----------X X-a99XwwhXwzX-wzz--z-----X      X-a99XwwhXwzX-wzz--z---X        X-a99XwwhXwzX-wzz--z--X         X-a99XwwhXwzX-wzz--z--X         ",
"X--99XbwwXwzX--8h----X          X--99XbwwXwzX--8h----X          X--99XbwwXwzX--8h----X          X--99XbwwXwzX--8h----XX         X--99XbwwXwzX--8h----XXXX       X--99XbwwXwzX--8h----XXXXXXXXX  X--99XbwwXwzX--8h----XXXX       X--99XbwwXwzX--8h----XX         X--99XbwwXwzX--8h----X          X--99XbwwXwzX--8h----X          ",
" X--9X---XwaX-----XXX            X--9X---XwaX-----XXX            X--9X---XwaX-----XXX            X--9X---XwaX-----XXX            X--9X---XwaX-----XXX            X--9X---XwaX-----XXX            X--9X---XwaX-----XXX            X--9X---XwaX-----XXX            X--9X---XwaX-----XXX            X--9X---XwaX-----XXX           ",
"  XXXXXXXXXXXXXXXX                XXXXXXXXXXXXXXXX                XXXXXXXXXXXXXXXX                XXXXXXXXXXXXXXXX                XXXXXXXXXXXXXXXX                XXXXXXXXXXXXXXXX                XXXXXXXXXXXXXXXX                XXXXXXXXXXXXXXXX                XXXXXXXXXXXXXXXX                XXXXXXXXXXXXXXXX              "
};
