/* XPM */
static const char *maiz[] = {
/* columns rows colors chars-per-pixel */
"64 64 218 2 ",
"   c #0A2F0B",
".  c #0E3A0B",
"X  c #0D3809",
"o  c #123B0C",
"O  c #193F0E",
"+  c #132F14",
"@  c #0F3C11",
"#  c #133514",
"$  c #133C12",
"%  c #19381A",
"&  c #122C08",
"*  c #3F2F03",
"=  c #3E3108",
"-  c #223D1F",
";  c #3B301F",
":  c #1F2227",
">  c #232E2F",
",  c #25342C",
"<  c #363220",
"1  c #242933",
"2  c #35393E",
"3  c #553A0F",
"4  c #583A09",
"5  c #573804",
"6  c #463404",
"7  c #14430B",
"8  c #194805",
"9  c #194517",
"0  c #37540C",
"q  c #224C12",
"w  c #2C4C17",
"e  c #234A1C",
"r  c #23531B",
"t  c #2C5C1E",
"y  c #275818",
"u  c #335719",
"i  c #37460B",
"p  c #3A730F",
"a  c #2E671A",
"s  c #346A12",
"d  c #346C1D",
"f  c #386A19",
"g  c #3D791A",
"h  c #2E432E",
"j  c #2B5521",
"k  c #285523",
"l  c #39483D",
"z  c #385A27",
"x  c #2E6723",
"c  c #336422",
"v  c #346C24",
"b  c #3A6E21",
"n  c #366C2B",
"m  c #38672B",
"M  c #3D732A",
"N  c #357120",
"B  c #396330",
"V  c #52400D",
"C  c #565115",
"Z  c #694904",
"A  c #774801",
"S  c #615E0E",
"D  c #654511",
"F  c #635710",
"G  c #7A5401",
"H  c #40771D",
"J  c #457D2A",
"K  c #487C2D",
"L  c #427625",
"P  c #4E7D30",
"I  c #507839",
"U  c #3F4C47",
"Y  c #4A4C4C",
"T  c #505E56",
"R  c #465448",
"E  c #804F01",
"W  c #825410",
"Q  c #935D0C",
"!  c #AD6A01",
"~  c #B46F04",
"^  c #BB6F03",
"/  c #B77301",
"(  c #BB7503",
")  c #B57C01",
"_  c #BD7C02",
"`  c #BE7A0A",
"'  c #A87E26",
"]  c #C27D02",
"[  c #C07604",
"{  c #488518",
"}  c #4B8524",
"|  c #4E872C",
" . c #4A8A26",
".. c #538C25",
"X. c #52862E",
"o. c #548C2C",
"O. c #5C9425",
"+. c #5B932D",
"@. c #5F992F",
"#. c #569023",
"$. c #548C33",
"%. c #578B39",
"&. c #599232",
"*. c #589337",
"=. c #4F8537",
"-. c #649B2E",
";. c #659D31",
":. c #65993D",
">. c #72AA2D",
",. c #78AF2D",
"<. c #6CA434",
"1. c #6FA834",
"2. c #6EA53B",
"3. c #73AC33",
"4. c #79AE33",
"5. c #74AD3B",
"6. c #75AA3A",
"7. c #76B133",
"8. c #7BB235",
"9. c #7BB239",
"0. c #77B139",
"q. c #5F9143",
"w. c #639444",
"e. c #6B974B",
"r. c #699241",
"t. c #6DA242",
"y. c #75AB42",
"u. c #7CB342",
"i. c #BE8A02",
"p. c #BF8701",
"a. c #A98118",
"s. c #BC8D1C",
"d. c #BF981C",
"f. c #B38A23",
"g. c #80B93C",
"h. c #C38202",
"j. c #CB8501",
"k. c #CC8C02",
"l. c #CB8B0B",
"z. c #D18B03",
"x. c #D48A09",
"c. c #C39102",
"v. c #CE9200",
"b. c #D39104",
"n. c #DA9608",
"m. c #D48E10",
"M. c #D49C13",
"N. c #DD9912",
"B. c #C78E14",
"V. c #E39D0A",
"C. c #DEA006",
"Z. c #DDAA11",
"A. c #DBA510",
"S. c #EAA606",
"D. c #EBAB04",
"F. c #EEAE08",
"G. c #E4A809",
"H. c #F0AC04",
"J. c #EBB10B",
"K. c #F4BB0C",
"L. c #F8BD04",
"P. c #E2A212",
"I. c #E2AA13",
"U. c #E9A917",
"Y. c #E8B915",
"T. c #F3B718",
"R. c #C7A73B",
"E. c #EBAE21",
"W. c #E2BB28",
"Q. c #F8B922",
"!. c #F5C20B",
"~. c #F7CE09",
"^. c #FACC0C",
"/. c #FAC808",
"(. c #FBD30C",
"). c #FCD308",
"_. c #F4CA14",
"`. c #FECC14",
"'. c #FAC41B",
"]. c #F6C719",
"[. c #F4D214",
"{. c #FDD214",
"}. c #F5D31C",
"|. c #FCD31A",
" X c #FEDB1B",
".X c #EAC70E",
"XX c #FCCB22",
"oX c #F5CB2B",
"OX c #EED32C",
"+X c #FBD725",
"@X c #EFCD30",
"#X c #F8D93A",
"$X c #F4CA3F",
"%X c #F8E034",
"&X c #85BB47",
"*X c #95CD46",
"=X c #96CC4D",
"-X c #9BCF4D",
";X c #9BD24A",
":X c #99D244",
">X c #98D150",
",X c #A1D54D",
"<X c #9DD361",
"1X c #A3D865",
"2X c #EED045",
"3X c #FDDB4A",
"4X c #FEEA4F",
"5X c #F7E345",
"6X c #FEEC52",
"7X c #FEE55D",
"8X c #FEED5D",
"9X c #FEE755",
"0X c #FDEF65",
"qX c #FDEE69",
"wX c #F5ED66",
"eX c #FDF16C",
"rX c #FDF072",
"tX c None",
/* pixels */
"tXtXtXtXtXtXtXtXtXtXtXtXtXtXtXtXtXtXtXtXtXtXtXtXtXtXtXtXtXtXtXtXtXtXtXtXtXtXtXtXtXtXtXtXtXtXtXtXtXtXtXtXtXtXtXtXtXtXtXtXtXtXtXtX",
"tXtXtXtXtXtXtXtXtXtXtXtXtXtXtXtXtXtXtXtXtXtXtXtXtXtXtXtXtXtXtXtXtXtXtXtXtXtXtXtXtXtXtXtXtXtXtXtXtXtXtXtXtXtXtXtXtXtXtXtXtXtXtXtX",
"tXtXtXtXtXtXtXtXtXtXtXtXtXtXtXtXtXtXtXtXtXtXtXtXtXtXtXtXtXtXtXtXtXtXtXtXtXtXtXtXtXtXtXtXtXtXtXtXtXtXtXtXtXtXtXtXtXtXtXtXtXtXtXtX",
"tXtXtXtXtXtXtXtXtXtXtXtXtXtXtXtXtXtXtXtXtXtXtXtXtXtXtXtXtXtXtXtXtXtXtXtXtXtXtXtXtXtXtXtXtXtXtXtXtXtXtXtXtXtXtXtXtXtXtXtXtXtXtXtX",
"tXtXtXtXtXtXtXtXtXtXtXtXtXtXtXtXtXtXtXtXtXtXtXtXtXtXtXtXtXtXtXtXtXtXtXtXtXtXtXtXtXtXtXtXtXtXtXtXtXtXtXtXtXtXtXtXtXtXtXtXtXtXtXtX",
"tXtXtXtXtXtXtXtXtXtXtXtXtXtXtXtXtXtXtXtXtXtXtXtXtXtXtXtXtXtXtXtXtXtXtXtXtXtXtXtXtXtXtXtXtXtXtXtXtXtXtXtXtXtXtXtXtXtXtXtXtXtXtXtX",
"tXtXtXtXtXtXtXtXtXtXtXtXtXtXtXtXtXtXtXtXtXtXtXtXtXtXtXtXtXtXtXtXtXtXtXtXtXtXtXtXtXtXtXtXtXtXtXtXtXtXtXtXtXtXtXtXtXtXtXtXtXtXtXtX",
"tXtXtXtXtXtXtXtXtXtXtXtXtXtXtXtXtXtXtXtXtXtXtXtXtXtXtXtXtXtXtXtXtXtXtXtXtXtXtXtXtXtXtXtXtXtXtXtXtXtXtXtXtXtXtXtXtXtXtXtXtXtXtXtX",
"tXtXtXtXtXtXtXtXtXtXtXtXtXtXtXtXtXtXtXtXtXtXtXtXtXtXtXtXtXtXtXtXtXtXtXtXtXtXtXtXtXtXtXtXtXtXtXtXtXtXtXtXtXtXtXtXtXtXtXtXtXtXtXtX",
"tXtXtXtXtXtXtXtXtXtXtXtXtXtXtXtXtXtXtXtXtXtXtXtXtXtXtXtXtXtXtXtXtXtXtXtXtXtXtXtXtXtXtXtXtXtXtXtXtXtXtXtXtXtXtXtXtXtXtXtXtXtXtXtX",
"tXtXtXtXtXtXtXtXtXtXtXtXtXtXtXtXtXtXtXtXtXtXtXtXtXtXtXtXtXtXtXtXtXtXtXtXtXtXtXtXtXtXtXtXtXtXtXtXtXtXtXtXtXtXtXtXtXtXtXtXtXtXtXtX",
"tXtXtXtXtXtXtXtXtXtXtXtXtXtXtXtXtXtXtXtXtXtXtXtXtXtXtXtXtXtXtXtXtXtXtXtXtXtXtXtXtXtXtXtXtXtXtXtXtXtXtXtXtXtXtXtXtXtXtXtXtXtXtXtX",
"tXtXtXtXtXtXtXtXtXtXtXtXtXtXtXtXtXtXtXtXtXtXtXtXtXtXtXtXtXtXtXtXtXtXtXtXtXtXtXtXtXtXtXtXtXtXtXtXtXtXtXtXtXtXtXtXtXtXtXtXtXtXtXtX",
"tXtXtXtXtXtXtXtXtXtXtXtXtXtXtXtXtXtXtXtXtXtXtXtXtXtXtXtXtXtXtXtXtX- tXtXtXtXtXtXtXtXtXtXtXtXtXtXtXtXtXtXtXtXtXtXtXtXtXtXtXtXtXtX",
"tXtXtXtXtXtXtXtXtXtXtXtXtXtXtXtXtXtXtXtXtXtXtXtXtXtXtXtXtXtXtXtXtX7 e.tXtXtXtXtX3 3 3 3 tXtXtXtXtXtXtXtXtXtXtXtXtXtXtXtXtXtXtXtX",
"tXtXtXtXtXtXtXtXtXtXtXtXtXtXtXtXtXtXtXtXtXtXtXtXtXtXtXtXtXtXtXtXtX8.e.tXtXtXtXD D W.T.' 3 tXtXtXtXtXtXtXtXtXtXtXtXtXtXtXtXtXtXtX",
"tXtXtXtXtXtXtXtXtXtXtXtXtXtXtXtXtXtXtXtXtXtXtXtXtX, o tXtXtXtXtXtX9.w.tXY tX4 S.b.c.+XY.^.tXtXtXtXtXtXtXtXtXtXtXtXtXtXtXtXtXtXtX",
"tXtXtXtXtXtXtXtXtXtXtXtXtXtXtXtXtXtXtXtXtXtXtXtXtXtX,Xj tXtXtXtX7 @.w.tXtXz. Xb.|.+X~.!.D.A tXtXtXtXtXtXtXtXtXtXtXtXtXtXtXtXtXtX",
"tXtXtXtXtXtXtXtXtXtXtXtXtXtXtXtXtXtXtXtXtXtXtXtXtXtX;Xb 2 tXtXO 1.J r.; d.4Xk.6XT.i.6XT.) k.4 tXtXtXtXtXtXtXtXtXtXtXtXtXtXtXtXtX",
"tXtXtXtXtXtXtXtXtXtXtXtXtXtXtXtXtXtXtXtXtXtXtXtXtXtX;XK . 1 tX5.J j Z eXS.x.qXS.|.8XS.n.S._ D tXtXtXtXtXtXtXtXtXtXtXtXtXtXtXtXtX",
"tXtXtXtXtXtXtXtXtXtXtXtXtXtXtXtXtXtXtXtXtXtXtXtXtXtX;Xo.o l c o.u R.D.Z.W.#XI.I.Z.I.J.M.H.m.5 tXtXtXtXtXtXtXtXtXtXtXtXtXtXtXtXtX",
"tXtXtXtXtXtXtXtXtXtXtXtXtXtXtXtXtXtXtXtXtXtXtXtXtXX ,XM . q.4.$ Z ~.7Xk.).(.|.z.(.|.] @X/ G tXtXtXtXtXtXtXtXtXtXtXtXtXtXtXtXtXtX",
"tXtXtXtXtXtXtXtXtXtXtXtXtXtXtXtXtXtXtXtXtXtXtXtXtXX >.d # s o 3X9Xk.@XeXI.b.}.eX_ p.k.l.'.A tXtXtXtXtXtXtXtXtXtXtXtXtXtXtXtXtXtX",
"tXtXtXtXtXtXtXtXtXtXtXtXtXtXtXtXtXtXtXtXtXtXtXtXo O.<.r  .. A `.XX}.v.(.2X[.XX(.h.[.).~ T.5 tXtXtXtXtXtXtXtXtXtXtXtXtXtXtXtXtXtX",
"tXtXtXtXtXtXtXtXtXtXtXtXtXtXtXtXtXtXtXtXtXtXtXtX2.,.a e $ $X{.k.C.wX Xz.).[.XXz.{.j.S.l.[ < tXtXtXtXtXtXtXtXtXtXtXtXtXtXtXtXtXtX",
"tXtXtXtXtXtXtXtXtXtXtXtXtXtXtXtXtXtXtXtXtXtXtXtX9.-X# w E E.+X#X].`.Y.qXP.(.|.h.8X'.! P.V tXtXtXtXtXtXtXtXtXtXtXtXtXtXtXtXtXtXtX",
"tXtXtXtXtXtXtXtXtXtXtXtXtXtXtXtXtXtXtXtXtXtXtXX 4.<X$ Q L.k.~.{.(.k.j.(.(.] XX8Xj.T./.W tXh # $ : tXtXtXtXtXtXtXtXtXtXtXtXtXtXtX",
"tXtXtXtXtXtXtXtXtXtXtXtXtXtXtXtXtXtXtXtXtXtXm 8.;X:.F n.P.#XeXI.C.rX7XV.!.P.I./.F.! K.C 9 X.;.e.tXtXtXtXtXtXtXtXtXtXtXtXtXtXtXtX",
"tXtXtXtXtXtXtXtXtXtXtXtXtXtXtXtXtXtXtXtXtXtX1X>.;X0 h.n.eXc.).n.+X!.(.).] {..X( ( T.4 x ..s % tXtXtXtXtXtXtXtXtXtXtXtXtXtXtXtXtX",
"tXtXtXtXtXtXtXtXtXtXtXtXtXtXtXtXtXtXtXtXR w.g.7.f a./ U.).|.b.].OXXXv.p.3X'.J./ ] B.z $.{ % tXtXtXtXtXtXtXtXtXtXtXtXtXtXtXtXtXtX",
"tXtXtXtXtXtXtXtXtXtXtXtXtXtXtXtXtXtXtXtXK 3.>.3.q ( |.#Xz.S.qX_ (.).oX] ).(./ F.z.6 d o.# tXtXtXtXtXtXtXtXtXtXtXtXtXtXtXtXtXtXtX",
"tXtXtXtXtXtXtXtXtXtXtXtXtXtXtXtXtXtXtX% 2.;X8.;Xe j.k._.z.h.).{.XX) h.0Xm.D.Q.~ 6 a 1.t tXtXtXtXtXtXtXtXtXtXtXtXtXtXtXtXtXtXtXtX",
"tXtXtXtXtXtXtXtXtXtXtXtXtXtXtXtXtXtXtX} &X*X;X>Xl._.}.z. X5Xb.|.{._ ) L.K.( /.` j s L tXtXtXtXtXtXtXtXtXtXtXtXtXtXtXtXtXtXtXtXtX",
"tXtXtXtXtXtXtXtXtXtXtXtXtXtXtXtXtXtX7 +.8.4.*X;.Y.h.n.5X_ {.(./ ] ^.6X( N./.[ = &.%.> tXtXtXtXtXtXtXtXtXtXtXtXtXtXtXtXtXtXtXtXtX",
"tXtXtXtXtXtXtXtXtXtXtXtXtXtXtXtXtXtX8 O.4.} :Xw ^.4Xk.+X#XP.|.p.}.] T.U.N.U.* 8 m % tXtXtXtXtXtXtXtXtXtXtXtXtXtXtXtXtXtXtXtXtXtX",
"tXtXtXtXtXtXtXtXtXtXtXtXtXtXtXtXtX  +.8.-.>.>.u S.i.0XZ.^.^.` ( H.H.T.D.( & $ # @ tXtXtXtXtXtXtXtXtXtXtXtXtXtXtXtXtXtXtXtXtXtXtX",
"tXtXtXtXtXtXtXtXtXtXtXtXtXtXtXtXtX+.-.8.-.3.q n.] A.%X].M.) K./.N.b.S S :.:.g.g.u.I tXtXtXtXtXtXtXtXtXtXtXtXtXtXtXtXtXtXtXtXtXtX",
"tXtXtXtXtXtXtXtXtXtXtXtXtXtXtXtX  &.5.4.&.:Xq ( 0X7X(.(./ Q.^ k.d.k ;X;X3.<.<.3.=X*X7 tXtXtXtXtXtXtXtXtXtXtXtXtXtXtXtXtXtXtXtXtX",
"tXtXtXtXtXtXtXtXtXtXtXtXtXtXtXtXo o.p 8.X.;Xa.h.!._.'._ U.Z i 1X<X>.d a J v v 7 o o o l tXtXtXtXtXtXtXtXtXtXtXtXtXtXtXtXtXtXtXtX",
"tXtXtXtXtXtXtXtXtXtXtXtXtXtXtXtX7 o.f 7.X.*Xs.L.( ^.] M.y t.-X3.u.v o.v J M % tXtXtXtXtXtXtXtXtXtXtXtXtXtXtXtXtXtXtXtXtXtXtXtXtX",
"tXtXtXtXtXtXtXtXtXtXtXtXtXtXtXtX# &.H 3.&X<.a.L.h.f.w =X>.4.3.3.6.+.d b r tXtXtXtXtXtXtXtXtXtXtXtXtXtXtXtXtXtXtXtXtXtXtXtXtXtXtX",
"tXtXtXtXtXtXtXtXtXtXtXtXtXtXtXtXo o.g 3.5.y.s.f.0 8 =X3.5.#.O.0.o.v *.M T tXtXtXtXtXtXtXtXtXtXtXtXtXtXtXtXtXtXtXtXtXtXtXtXtXtXtX",
"tXtXtXtXtXtXtXtXtXtXtXtXtXtXtXtX. v } 7.u.9 i :X4.3.3.o.7.3.3.o.N c m tXtXtXtXtXtXtXtXtXtXtXtXtXtXtXtXtXtXtXtXtXtXtXtXtXtXtXtXtX",
"tXtXtXtXtXtXtXtXtXtXtXtXtXtXtXtXtXn J | 8.9 &X3.1.;.@.;.3.;.;.J K t U tXtXtXtXtXtXtXtXtXtXtXtXtXtXtXtXtXtXtXtXtXtXtXtXtXtXtXtXtX",
"tXtXtXtXtXtXtXtXtXtXtXtXtXtXtXtXtX# x ..L ,X3.1.o.3.>.;.| ..v d m tXtXtXtXtXtXtXtXtXtXtXtXtXtXtXtXtXtXtXtXtXtXtXtXtXtXtXtXtXtXtX",
"tXtXtXtXtXtXtXtXtXtXtXtXtXtXtXY tXB $ v b o.*.$...+...<.g $.d 7 tXtXtXtXtXtXtXtXtXtXtXtXtXtXtXtXtXtXtXtXtXtXtXtXtXtXtXtXtXtXtXtX",
"tXtXtXtXtXtXtXtXtXtXtXtXtXtXtXtX, &.n 9 c v o.&.o.9.v x @.n v tXtXtXtXtXtXtXtXtXtXtXtXtXtXtXtXtXtXtXtXtXtXtXtXtXtXtXtXtXtXtXtXtX",
"tXtXtXtXtXtXtXtXtXtXtXtXtXtXtX: 7 0.#.P 9 @ d $.$.=.d v v $ tXtXtXtXtXtXtXtXtXtXtXtXtXtXtXtXtXtXtXtXtXtXtXtXtXtXtXtXtXtXtXtXtXtX",
"tXtXtXtXtXtXtXtXtXtXtXtXtXtXtXtX+ 2.t.5.t k # M M n n j + tXtXtXtXtXtXtXtXtXtXtXtXtXtXtXtXtXtXtXtXtXtXtXtXtXtXtXtXtXtXtXtXtXtXtX",
"tXtXtXtXtXtXtXtXtXtXtXtXtXtXtXtXtX# 7 K r tXtXtXtXtXtXtXtXtXtXtXtXtXtXtXtXtXtXtXtXtXtXtXtXtXtXtXtXtXtXtXtXtXtXtXtXtXtXtXtXtXtXtX",
"tXtXtXtXtXtXtXtXtXtXtXtXtXtXtXtXtXtX, % tXtXtXtXtXtXtXtXtXtXtXtXtXtXtXtXtXtXtXtXtXtXtXtXtXtXtXtXtXtXtXtXtXtXtXtXtXtXtXtXtXtXtXtX",
"tXtXtXtXtXtXtXtXtXtXtXtXtXtXtXtXtXtXtX1 tXtXtXtXtXtXtXtXtXtXtXtXtXtXtXtXtXtXtXtXtXtXtXtXtXtXtXtXtXtXtXtXtXtXtXtXtXtXtXtXtXtXtXtX",
"tXtXtXtXtXtXtXtXtXtXtXtXtXtXtXtXtXtXtXtXtXtXtXtXtXtXtXtXtXtXtXtXtXtXtXtXtXtXtXtXtXtXtXtXtXtXtXtXtXtXtXtXtXtXtXtXtXtXtXtXtXtXtXtX",
"tXtXtXtXtXtXtXtXtXtXtXtXtXtXtXtXtXtXtXtXtXtXtXtXtXtXtXtXtXtXtXtXtXtXtXtXtXtXtXtXtXtXtXtXtXtXtXtXtXtXtXtXtXtXtXtXtXtXtXtXtXtXtXtX",
"tXtXtXtXtXtXtXtXtXtXtXtXtXtXtXtXtXtXtXtXtXtXtXtXtXtXtXtXtXtXtXtXtXtXtXtXtXtXtXtXtXtXtXtXtXtXtXtXtXtXtXtXtXtXtXtXtXtXtXtXtXtXtXtX",
"tXtXtXtXtXtXtXtXtXtXtXtXtXtXtXtXtXtXtXtXtXtXtXtXtXtXtXtXtXtXtXtXtXtXtXtXtXtXtXtXtXtXtXtXtXtXtXtXtXtXtXtXtXtXtXtXtXtXtXtXtXtXtXtX",
"tXtXtXtXtXtXtXtXtXtXtXtXtXtXtXtXtXtXtXtXtXtXtXtXtXtXtXtXtXtXtXtXtXtXtXtXtXtXtXtXtXtXtXtXtXtXtXtXtXtXtXtXtXtXtXtXtXtXtXtXtXtXtXtX",
"tXtXtXtXtXtXtXtXtXtXtXtXtXtXtXtXtXtXtXtXtXtXtXtXtXtXtXtXtXtXtXtXtXtXtXtXtXtXtXtXtXtXtXtXtXtXtXtXtXtXtXtXtXtXtXtXtXtXtXtXtXtXtXtX",
"tXtXtXtXtXtXtXtXtXtXtXtXtXtXtXtXtXtXtXtXtXtXtXtXtXtXtXtXtXtXtXtXtXtXtXtXtXtXtXtXtXtXtXtXtXtXtXtXtXtXtXtXtXtXtXtXtXtXtXtXtXtXtXtX",
"tXtXtXtXtXtXtXtXtXtXtXtXtXtXtXtXtXtXtXtXtXtXtXtXtXtXtXtXtXtXtXtXtXtXtXtXtXtXtXtXtXtXtXtXtXtXtXtXtXtXtXtXtXtXtXtXtXtXtXtXtXtXtXtX",
"tXtXtXtXtXtXtXtXtXtXtXtXtXtXtXtXtXtXtXtXtXtXtXtXtXtXtXtXtXtXtXtXtXtXtXtXtXtXtXtXtXtXtXtXtXtXtXtXtXtXtXtXtXtXtXtXtXtXtXtXtXtXtXtX",
"tXtXtXtXtXtXtXtXtXtXtXtXtXtXtXtXtXtXtXtXtXtXtXtXtXtXtXtXtXtXtXtXtXtXtXtXtXtXtXtXtXtXtXtXtXtXtXtXtXtXtXtXtXtXtXtXtXtXtXtXtXtXtXtX",
"tXtXtXtXtXtXtXtXtXtXtXtXtXtXtXtXtXtXtXtXtXtXtXtXtXtXtXtXtXtXtXtXtXtXtXtXtXtXtXtXtXtXtXtXtXtXtXtXtXtXtXtXtXtXtXtXtXtXtXtXtXtXtXtX",
"tXtXtXtXtXtXtXtXtXtXtXtXtXtXtXtXtXtXtXtXtXtXtXtXtXtXtXtXtXtXtXtXtXtXtXtXtXtXtXtXtXtXtXtXtXtXtXtXtXtXtXtXtXtXtXtXtXtXtXtXtXtXtXtX"
};
