/* XPM */
static const char *pared[] = {
/* columns rows colors chars-per-pixel */
"64 64 73 1 ",
"  c #261715",
". c #271816",
"X c #291917",
"o c #261918",
"O c #2C1A18",
"+ c #311D17",
"@ c #321E1A",
"# c #2F221F",
"$ c #35211C",
"% c #3B241D",
"& c #3E281F",
"* c #2B2221",
"= c #352522",
"- c #3D2620",
"; c #3E2921",
": c #3C2F2F",
"> c #3B3333",
", c #3C3739",
"< c #41271F",
"1 c #44291F",
"2 c #412720",
"3 c #452B22",
"4 c #482E24",
"5 c #4A2E24",
"6 c #4C2F24",
"7 c #473024",
"8 c #4D3023",
"9 c #4A3024",
"0 c #483127",
"q c #4B3226",
"w c #4E3125",
"e c #4D3328",
"r c #4D3428",
"t c #4E3429",
"y c #503224",
"u c #513327",
"i c #523327",
"p c #513427",
"a c #533527",
"s c #543426",
"d c #553726",
"f c #583727",
"g c #563827",
"h c #593827",
"j c #543628",
"k c #573728",
"l c #583728",
"z c #57392A",
"x c #583829",
"c c #5B3B2B",
"v c #5C3B2A",
"b c #5D3C2B",
"n c #5F3D2B",
"m c #5F3E2C",
"M c #473734",
"N c #5D3E30",
"B c #613E2B",
"V c #603E2D",
"C c #623F2C",
"Z c #623F2D",
"A c #57413A",
"S c #65412D",
"D c #64412E",
"F c #67432F",
"G c #68432F",
"H c #69442F",
"J c #624131",
"K c #6B4531",
"L c #6F4833",
"P c #724A35",
"I c #7A6E6B",
"U c #897770",
"Y c #9C9899",
/* pixels */
"O$%O@$.;wweweeeewwqqqqewwwweeweqeeeeeewwweeeerwwqeweqwww%.$$@$;$",
"&8d25uO5SHGGVVVVdddkdwwuuVBBBVVVVVVVVVVmnmmmnVVVVBBBVBVB3Oa525Vq",
"qdw;5wO&waw55555555555xGGGSSVllxd655552255555aSSSSSSSSnh1Oa5;5Vq",
"qdq>=wO&535ww55558uklkkx6555555kduuuuuwudd53235555555w53%Ou5>-n5",
"qgq#$wO&uuuadw556uklmSSSSx5555wudww6ww333333wuxx55555555%Oa3=3u5",
"qVw25wO&wwwwuauu23uuaadd3&%3aaaaaaaaddkkzzzzaaw&%%www6ww&Odk3du5",
"qVw25wOXXOXOXOXX..XXOXXOX...XXXXOOXXOXOXXXO.XXX..XX.XXXX.Okxalu5",
"wV625%O$%%%%@X@@$$@O%%%%%%%%%%%%%%%%%%%%%%%%O@@@$@X@%%%%$Odkaxu3",
"qV626<O%1133&O3=,q<O11333aaaaaa5113331111133O&$>;5X&3133%Oa5alu5",
"wVw2x<O2nVVvw$z;=K3$SVVmlllkklllkllllSSSSSSm$d1$kvOannVV&Oau2au5",
"qmw2kwO-xxxk5@JwuK3$xxvxdkdkkddka5www65a3333Od33VnO3wuaa2Owx3wa5",
"quv2uuO&55552@SukK5O355565566653xllxxxxxxxkx=f13vxO55555&O2la6V5",
"qun3uuO2xvVSv@Skvv3@w8wuuu535533555555w55333@fB5dkOukklk-O2lu5V5",
"qux3wxO&55553@KkAm<O555556dlxxxllxxlxxxxfkkk$dSM3u@25555&O<ld2V5",
"qux35nO%wwww3@Kq*Sw$SJJSSJJJJSSJJJSSSSzSSSVV$5n*2u@3wwwq%O3dS5V5",
"qux35mO......$a5-w5O..............XX..XXXXX.O&-%25@......Ow5S5m5",
"wuS35VO%wuaaw-5qqq5;aaaaaaaaaaaaaaaaaakkkkkk3wwwww25uwuw&Xwwx5V5",
"quS55VO&xnnBh3nnmvnwVnnmnnnmmmmnmmmvxvxnmvmmkvvmmn3knnnx&Oawd5d5",
"quSd3mO%3zxxw3a3:wa36661355655xSSx655wkkkww525q>%6&15553$Oa555u3",
"quSx5VO%5w6555auwaa3w886wuu666dxnxldkddaaaaw22d55dq5uuuq$Oa55ku3",
"quSx5VO$56653266www366wwklz666w6kx6wlk666666366666356665$Oa55xu3",
"qw6d5VO%akvnkunvvma3uuw665wvnxdkvxkkxVSSxlk5353355%23333%Ouk5xu5",
"qw5dawO&kkmVxkVVVBS5kkkwwwwkkw35a555555555kx5lxxlx6ullla%OdV5lu3",
"qw5ax1OOO@@O@@OO@@@O$$$$$$$$$$$$$$$$$$$@$$@@$@@@@@@@@@@OOOkS5xuq",
"qw2ax2O$nJJJzrJJJJJqJJJJJJJJJJJJJJJSJJSSJJJJzJJJJJamJJJN$OkS5xu7",
"&m3ax2O%dllku5lld8836866555ullllxlSSSSSSVVVVmVVllx668666&OdS5xw7",
"3V6aw&O%aSSSV36wukk5adkkauwa53535kkkddadnmvvnVVxxSxvSSSu%OdS5ku5",
"qVwu63O$%%563wnxxxxqkSSdq5&-&3klllkdzdw56555uxxxd5w2&&&@@OdS5uw5",
"qVwa6uO%waku38xxxda55whw66866dklSSSSxxnvzxxu3axxxx5dxxxk%Oax55n5",
"qxxx6uO%55553wxVvxnvSxk666666ulkklkkxknSVSSk3axzzx3axzku%Oax55V5",
"quxx6uO%akkkw2u3331133233kklxnnKLKKS33333333323533%uvxxu%Oux55V5",
"quSx6uO$2222&@333333323323333wuuuuww33333333233335%255q;$Ouwa5Vq",
"quSx5JOX25532%53533&555755355555535qqq553555-q5355%25533XOw5xuV5",
"quSwwJO&xVVmkzVnmmvwVmnmmmmnnmmmmmBnnVVnmmmmxmmmmmrxmmVx&Ow5lkVq",
"qzx56JO%55563@xnd56655556w66BVSSmlxxx65ww66ww66355%36555%Ou5dlK5",
"qm555SO&366635xxxVVku666udddxxxnxkuuuuudduu6uakdnv536655%O3wulP5",
"qm55wSO%566653w6ww6ww6www66wwwulkkkkkxkw6ww5366www555665%OaxwkP5",
"qm55wSX$wuuuwwvvxwwanmmmnnnnnnvVSSkvmnSSlkw53wanx6233333$Oax5lP3",
"qm55uJO%akkku5kkkkk2mSSSVVVVVVVkkllVSSxlxllx5mSVSx3axlkd%Oax5lK5",
"qVx5lSOOO$$@@@$$$$$@@@@@@@@@@@@@@@@@@@@@@@@@$@@@@@@OO@@O@Olx5xV5",
"qVxwVSO$NJJJnuJJJJJrJJJJJJJJJJJJJJJJJJJJJJJJqJJJJJrxJJJn$OJx5lVq",
"qVxwSSX&kkkku1wwulSqSSSSSxxxlf8688kxSSkxVSSSuawwww&38555%OSx3aVq",
"qVx5nVX&mSSSv6kkxxVexuuuw33333aauulxxxvmmmnmwkaaakwxmVSx%OJk5uVq",
"qVx5vuO%25565uxxvxSullllxllllllxSSSvnmnxxd662666wxw22663%OSl5wV5",
"qVa5auO&SKGKSwd5355255555wuuuuuuxnnxdkxxxxxawuaxxxdvxxxk&OSlv3V5",
"qVw3auO&kxxxa6xkkxlwlllklu666666uxxxlxSKLPPS5kuxxx5akauw&OxlV3Vq",
"qV1&uuO&akmnd&33333-33uxvnnmnxmmnnvk33333313&533xnuukkka&OakV3Vq",
"qV<2xaO%33ww5%33333-3333wuwuuwaauu6335333333-335uu323333%Oa5x5V5",
"qu63luOO55552%35333O555553555555535555553555$53333%25353OOa6a5V5",
"qu53kuO&nmmmdwVmnmV3nmnmmmnmmmmmmnmmmmnmmmmmwvmmnm3kVmmx&O<5a5V5",
"qu5ax<X%dxxxu;w55562u5555555xVVkkk5555533w55w65555235653$O%5x5V5",
"qu5aw2O$5w8aw3uw66duSBSVBBBxxxxadkuuuuuSxkSnuaaauu5565ww%O%5x5m5",
"qu5a6wX$22<5535<6w6656666ww6653wukkkkkkkw55w3566555w3&33$O%555m5",
"qu5u5wX$ukddw5nxulv5wwuwwwxnnvu555553535kkdk5xk2kvuukkau%O%635m5",
"qu555wX$355512Sxwkm2SSKPPKVVSSxSSSSSSSnzkkkk;Bm&zKw55553$Oua55z5",
"qa6&5wX$wuwe3+%%%%%$uuuwwwuwwuwwwwwwwwuwwwww$3ww1w@5uuww$OSk56u3",
"qa2%23O@$@@@OX@@@@@o@@@$@@@@@@@$@@@@$@@@@$@@.@@@@@XO@$@@@Ox3%%a5",
"$rwrrwrerreeereerrarrrrrrrrrrrrrrrerrreeeerrrrrerrrrrrrrrarraer$",
"$aaaaVVVVVVVVVVVVmmmmmmVVVVVVVmmmmmmmmnVVVVVVnxxxnvVVVVVVVVaaaa$",
"&SSzxxxxxxxxxxxxxw5kkkuwzvnmmSVVSSSVSVxxxxxxk555uxxVSSSSSSSSUSS&",
"@53,5xxxxxa556uuuuuvmmxxkw555waauuueaakauuuuuwuaxkku5555555IYI5@",
"@55=5xSSSSx66355wkkxxzxxw5555ukkkku5555wkkkkk655566kxllkw553I55O",
"-JJJJn&&&3uuuuuwwuuuwwwwwwwwwuauuuuwwwwwuuuuuuuuuuu&$$$$5zJJJJJ%",
" XXOXXXXOOOXOOOOOOOXOOXXXXOXOXOXXXXXXXOOXOXOXXXXXXXXXXXXOOOOOXO "
};
