/* XPM */
static const char *pollito_64[] = {
/* columns rows colors chars-per-pixel */
"64 64 228 2 ",
"   c #080007",
".  c #140001",
"X  c #190006",
"o  c #040017",
"O  c #180017",
"+  c #220105",
"@  c #270B07",
"#  c #3A090F",
"$  c #380407",
"%  c #32120A",
"&  c #37190D",
"*  c #2B001B",
"=  c #2E0712",
"-  c #3B0014",
";  c #330B11",
":  c #360018",
">  c #2D1112",
",  c #3E1B13",
"<  c #371617",
"1  c #20003F",
"2  c #43050F",
"3  c #481A06",
"4  c #541F0D",
"5  c #5D001D",
"6  c #4A1D1C",
"7  c #471816",
"8  c #400816",
"9  c #4C2414",
"0  c #43241B",
"q  c #4D231B",
"w  c #4F2C1A",
"e  c #542C1E",
"r  c #5A2E1C",
"t  c #512516",
"y  c #5F331E",
"u  c #593617",
"i  c #57220B",
"p  c #69290A",
"a  c #7D2F13",
"s  c #62331B",
"d  c #6C3815",
"f  c #7A3919",
"g  c #682B19",
"h  c #65122C",
"j  c #4D2D24",
"k  c #482325",
"l  c #562B24",
"z  c #5A3624",
"x  c #573B33",
"c  c #643D24",
"v  c #6B3C24",
"b  c #663927",
"n  c #642923",
"m  c #6C442C",
"M  c #734225",
"N  c #794F2C",
"B  c #754A2B",
"V  c #7D522D",
"C  c #694739",
"Z  c #7A4F32",
"A  c #7E5334",
"S  c #7D5B32",
"D  c #724E43",
"F  c #694D44",
"G  c #923F0A",
"H  c #9C2C10",
"J  c #8B3618",
"K  c #9D3914",
"L  c #8C3410",
"P  c #AD3916",
"I  c #983422",
"U  c #8D440B",
"Y  c #86460B",
"T  c #934908",
"R  c #99450C",
"E  c #93560D",
"W  c #9C510C",
"Q  c #8E4410",
"!  c #8A471A",
"~  c #954919",
"^  c #8D571A",
"/  c #995616",
"(  c #A34C0A",
")  c #AD5A0B",
"_  c #A7550B",
"`  c #B35D0D",
"'  c #A74B18",
"]  c #BA4A16",
"[  c #A35A16",
"{  c #A95915",
"}  c #B15E11",
"|  c #B55C1C",
" . c #B4620B",
".. c #BC640E",
"X. c #BD6B0D",
"o. c #BB680B",
"O. c #BE710E",
"+. c #A56417",
"@. c #B36213",
"#. c #BA6714",
"$. c #AD7816",
"%. c #B2741C",
"&. c #BD751C",
"*. c #B77D1A",
"=. c #AB640D",
"-. c #994C20",
";. c #975124",
":. c #815432",
">. c #845933",
",. c #8B5A33",
"<. c #8A5F3E",
"1. c #8B542F",
"2. c #A14924",
"3. c #B25826",
"4. c #B55F33",
"5. c #956235",
"6. c #9A6436",
"7. c #9E683A",
"8. c #9D673A",
"9. c #96733B",
"0. c #B1712C",
"q. c #A16D3B",
"w. c #A3713D",
"e. c #B8752E",
"r. c #CB5016",
"t. c #C36C0C",
"y. c #C26C06",
"u. c #C6720C",
"i. c #CB7509",
"p. c #CE7705",
"a. c #D57B06",
"s. c #DA7D04",
"d. c #D27A09",
"f. c #D17502",
"g. c #C46E13",
"h. c #C56117",
"j. c #C47313",
"k. c #C87916",
"l. c #E76D18",
"z. c #F17711",
"x. c #F26515",
"c. c #C35A20",
"v. c #D06D23",
"b. c #C57D20",
"n. c #D3762D",
"m. c #E27526",
"M. c #937441",
"N. c #AA821F",
"B. c #B0902F",
"V. c #B99936",
"C. c #D48306",
"Z. c #DE8304",
"A. c #DB8B0B",
"S. c #D88707",
"D. c #CB8416",
"F. c #D58313",
"G. c #D58914",
"H. c #D69515",
"J. c #E18504",
"K. c #E48C05",
"L. c #E48C09",
"P. c #E59404",
"I. c #EB9604",
"U. c #ED9B04",
"Y. c #E29309",
"T. c #EA9A0A",
"R. c #EA9608",
"E. c #F19C02",
"W. c #E59914",
"Q. c #F98C1F",
"!. c #EEA103",
"~. c #EEA309",
"^. c #ECAA0A",
"/. c #F2A403",
"(. c #F4AB04",
"). c #FAAE04",
"_. c #F2AC0A",
"`. c #F8AE0A",
"'. c #F2A30C",
"]. c #F6B303",
"[. c #F9B402",
"{. c #FBBB04",
"}. c #F3B20C",
"|. c #F8B409",
" X c #FBBD0B",
".X c #F7BA08",
"XX c #E7A718",
"oX c #F3AC16",
"OX c #EDB118",
"+X c #F6BC12",
"@X c #F3BE1D",
"#X c #F7B812",
"$X c #C9812E",
"%X c #DC9F24",
"&X c #DF8232",
"*X c #E2943A",
"=X c #C1A139",
"-X c #D7B93A",
";X c #EFB925",
":X c #EDB626",
">X c #FFAC3C",
",X c #F7BE24",
"<X c #FDC303",
"1X c #F7C20F",
"2X c #FDC50C",
"3X c #F7C310",
"4X c #F9C414",
"5X c #FCCA16",
"6X c #F9C41A",
"7X c #F7CA1A",
"8X c #FBCD1B",
"9X c #FCD11E",
"0X c #FCCD22",
"qX c #F8C121",
"wX c #FCD224",
"eX c #FCD52C",
"rX c #FED92D",
"tX c #FDD927",
"yX c #FAD533",
"uX c #FDDA33",
"iX c #FDDD3B",
"pX c #FFE233",
"aX c #FEE03F",
"sX c #CBA840",
"dX c #C8A740",
"fX c #FDDF41",
"gX c #FDE142",
"hX c None",
/* pixels */
"hXhXhXhXhXhXhXhXhXhXhXhXhXhXhXhXhXhXhXhXhXhXhXhXhXhXhXhXhXhXhXhXhXhXhXhXhXhXhXhXhXhXhXhXhXhXhXhXhXhXhXhXhXhXhXhXhXhXhXhXhXhXhXhX",
"hXhXhXhXhXhXhXhXhXhXhXhXhXhXhXhXhXhXhXhXhXhXhXhXhXhXhXhXhXhXhXhXhXhXhXhXhXhXhXhXhXhXhXhXhXhXhXhXhXhXhXhXhXhXhXhXhXhXhXhXhXhXhXhX",
"hXhXhXhXhXhXhXhXhXhXhXhXhXhXhXhXhXhXhXhXhXhXhXhXhXhXhXhXhXhXhXhXhXhXhXhXhXhXhXhXhXhXhXhXhXhXhXhXhXhXhXhXhXhXhXhXhXhXhXhXhXhXhXhX",
"hXhXhXhXhXhXhXhXhXhXhXhXhXhXhXhXhXhXhXhXhXhXhXhXhXhXhXhXhXhXhXhXhXhXhXhXhXhXhXhXhXhXhXhXhXhXhXhXhXhXhXhXhXhXhXhXhXhXhXhXhXhXhXhX",
"hXhXhXhXhXhXhXhXhXhXhXhXhXhXhXhXhXhXhXhXhXhXhXhXhXhXhXhXhXhXhXhXhXhXhXhXhXhXhXhXhXhXhXhXhXhXhXhXhXhXhXhXhXhXhXhXhXhXhXhXhXhXhXhX",
"hXhXhXhXhXhXhXhXhXhXhXhXhXhXhXhXhXhXhXhXhXhXhXhXhXhXhXhXhXhXhXhXhXhXhXhXhXhXhXhXhXhXhXhXhXhXhXhXhXhXhXhXhXhXhXhXhXhXhXhXhXhXhXhX",
"hXhXhXhXhXhXhXhXhXhXhXhXhXhXhXhXhXhXhXhXhXhXhXhXhXhXhXhXhXhXhXhXhXhXhXhXhXhXhXhXhXhXhXhXhXhXhXhXhXhXhXhXhXhXhXhXhXhXhXhXhXhXhXhX",
"hXhXhXhXhXhXhXhXhXhXhXhXhXhXhXhXhXhXhXhXhXhXhXhXhXhXhXhXhXhXhXhXhXhXhXhXhXhXhXhXhXhXhXhXhXhXhXhXhXhXhXhXhXhXhXhXhXhXhXhXhXhXhXhX",
"hXhXhXhXhXhXhXhXhXhXhXhXhXhXhXhXhXhXhXhXhXhXhXhXhXhXhXhXhXhXhXhXhXhXhXhXhXhXhXhXhXhXhXhXhXhXhXhXhXhXhXhXhXhXhXhXhXhXhXhXhXhXhXhX",
"hXhXhXhXhXhXhXhXhXhXhXhXhXhXhXhXhXhXhXhXhXhXhXhXhXhXhXhXhXhXhXhXhXhXhXhXhXhXhXhXhXhXhXhXhXhXhXhXhXhXhXhXhXhXhXhXhXhXhXhXhXhXhXhX",
"hXhXhXhXhXhXhXhXhXhXhXhXhXhXhXhXhXhXhXhXhXhXhXhXhXhXhXhXhXhXhXhXhXhXhXhXhXhXhXhXhXhXhXhXhXhXhXhXhXhXhXhXhXhXhXhXhXhXhXhXhXhXhXhX",
"hXhXhXhXhXhXhXhXhXhXhXhXhXhXhXhXhXhXhXhXhXhXhXhXhXhXhXhXhXhXhXhXhXhXhXhXhXhXhXhXhXhXhXhXhXhXhXhXhXhXhXhXhXhXhXhXhXhXhXhXhXhXhXhX",
"hXhXhXhXhXhXhXhXhXhXhXhXhXhXhXhXhXhXhXhXhXhXhXhXhXhXA ,.>.,.,.,.C j hXhXhXhXhXhXhXhXhXhXhXhXhXhXhXhXhXhXhXhXhXhXhXhXhXhXhXhXhXhX",
"hXhXhXhXhXhXhXhXhXhXhXhXhXhXhXhXhXhXhXhXhXhXhXhXhX:.5.7.7.7.q.5.5.M r < hXhXhXhXhXhXhXhXhXhXhXhXhXhXhXhXhXhXhXhXhXhXhXhXhXhXhXhX",
"hXhXhXhXhXhXhXhXhXhXhXhXhXhXhXhXhXhXhXhXhXhXhXhXr 8.5.5.6.q.w.q.q.,.v v e hXhXhXhXhXhXhXhXhXhXhXhXhXhXhXhXhXhXhXhXhXhXhXhXhXhXhX",
"hXhXhXhXhXhXhXhXhXhXhXhXhXhXhXhXhXhXhXhXhXhXhXo + , q l c :.,.,.,.M v v s hXhXhXhXhXhXhXhXhXhXhXhXhXhXhXhXhXhXhXhXhXhXhXhXhXhXhX",
"hXhXhXhXhXhXhXhXhXhXhXhXhXhXhXhXhXhXhXc A V N A V :.B b j 7 t n 9 e c y v x hXhXhXhXhXhXhXhXhXhXhXhXhXhXhXhXhXhXhXhXhXhXhXhXhXhX",
"hXhXhXhXhXhXhXhXhXhXhXhXhXhXhXhXhXhX<.M s r q 6 6 l A A ,.>.m 6 . + . % b t hXhXhXhXhXhXhXhXhXhXhXhXhXhXhXhXhXhXhXhXhXhXhXhXhXhX",
"hXhXhXhXhXhXhXhXhXhXhXhXhXhXhXhXhXhXv r q = f E E E E / 4 u b A Z z c 0 . . hXhXhXhXhXhXhXhXhXhXhXhXhXhXhXhXhXhXhXhXhXhXhXhXhXhX",
"hXhXhXhXhXhXhXhXhXhXhXhXhXhXhXhXhXhXhX0 - [ T.`.|.|.`.'.A.Z.O.=.^ c b m B c hXhXhXhXhXhXhXhXhXhXhXhXhXhXhXhXhXhXhXhXhXhXhXhXhXhX",
"hXhXhXhXhXhXhXhXhXhXhXhXhXhXhXhXhXhXhXhX/ 6XeXrXrXrXrXeX0XqX#X/.K.C.=.d k c m m hXhXhXhXhXhXhXhXhXhXhXhXhXhXhXhXhXhXhXhXhXhXhXhX",
"hXhXhXhXhXhXhXhXhXhXhXhXhXhXhXhXhXhXhXhX:XpXuXuXuXuXuXuXuXuXpXpXwX(.E.a.t.d ; s M hXhXhXhXhXhXhXhXhXhXhXhXhXhXhXhXhXhXhXhXhXhXhX",
"hXhXhXhXhXhXhXhXhXhXhXhXhXhXhXhXhXC D b N M.dXsX9.A >.V V V S -XpXtX X).I.u.i > s F hXhXhXhXhXhXhXhXhXhXhXhXhXhXhXhXhXhXhXhXhXhX",
"hXhXhXhXhXhXhXhXhXhXhXhXhXhXhXhXhXC C , X z V.=XN k C < . + - l V.B.N.$.$.F.Y > t x hXhXhXhXhXhXhXhXhXhXhXhXhXhXhXhXhXhXhXhXhXhX",
"hXhXhXhXhXhXhXhXhXhXhXhXhXhXhXhXv x 0 < o   -X-Xe z w j + @ 9 O sXB.+./ ^ ^ j.* hXhXhXhXhXhXhXhXhXhXhXhXhXhXhXhXhXhXhXhXhXhXhXhX",
"hXhXhXhXhXhXhXhXhXhXhXhXhXhXhXhXv , & X 3 n.v.$Xu % 3 @ @ % 9 o oX#X5X2X|.*.d.n hXhXhXhXhXhXhXhXhXhXhXhXhXhXhXhXhXhXhXhXhXhXhXhX",
"hXhXhXhXhXhXhXhXhXhXhXhXhXhXhXhXhXj < f *X>XQ.z.0.y # & % & 6 ! ,XrXrX5X[.`.I.~ hXhXhXhXhXhXhXhXhXhXhXhXhXhXhXhXhXhXhXhXhXhXhXhX",
"hXhXhXhXhXhXhXhXhXhXhXhXhXhXhXhXhXhX: | &Xh.h.] H %X7 : : * ;.OXeXrXeX{.|.U.R.R hXhXhXhXhXhXhXhXhXhXhXhXhXhXhXhXhXhXhXhXhXhXhXhX",
"hXhXhXhXhXhXhXhXhXhXhXhXhXhXhXhXhXhX*.H.R r.x.r.C.tX;X%.+.%.:XrXrXwXwX[.U.U.f.p.{ hXhXhXhXhXhXhXhXhXhXhXhXhXhXhXhXhXhXhXhXhXhXhX",
"hXhXhXhXhXhXhXhXhXhXhXhXhXhXhXhXhXhX%.8X0XG.#.G.4XuXuXrXeXrXrXeXeXwX3X/.I.I.T.[./.F.{ hXhXhXhXhXhXhXhXhXhXhXhXhXhXhXhXhXhXhXhXhX",
"hXhXhXhXhXhXhXhXhXhXhXhXhXhXhXhXhXhX;.XXrX0X|.6XeXeXeXeXeXeXeXwX6X_.U.U.].6X4X2X{.{.P.k.hXhXhXe.0.hXhXhXhXhXhXhXhXhXhXhXhXhXhXhX",
"hXhXhXhXhXhXhXhXhXhXhXhXhXhXhXhXhXhXJ K.#XrXeXrXrXeXeXeXeXeX5X]./.U.(.eXiXuX@X}.<X<X<X/.F.5 &.@X*.hXhXhXhXhXhXhXhXhXhXhXhXhXhXhX",
"hXhXhXhXhXhXhXhXhXhXhXhXhXhXhXhXhXh A. X+X(.[.4X6X1X4X3XeX8X6X6X4XrXgXgXgXgXgXyX}.^.<X<X(.g.oX6XD.a hXhXhXhXhXhXhXhXhXhXhXhXhXhX",
"hXhXhXhXhXhXhXhXhXhXhXhXhXhXhXhXhX(  X8XrXwX.X6X7X5XwXwXwXwXwXwX8XiXgXfXiXfXgXiXwXOXG.}.{.|._.3X+XW hXhXhXhXhXhXhXhXhXhXhXhXhXhX",
"hXhXhXhXhXhXhXhXhXhXhXhXhXhXhXhXb.S.8XrXgXiXwXiXfXwXwXwXuXuXwXwX+XyXfXfXiXiXeXiXeX#XT.k.W.|.).4X).G hXhXhXhXhXhXhXhXhXhXhXhXhXhX",
"hXhXhXhXhXhXhXhXhXhXhXhXhXhXhXhXk.P.yXgXgXgXgXgXgXiXgXgXgXgXyX9X!.eXgXfXiXaXyX3XrX@XI.~.#.[ |.[.U.U hXhXhXhXhXhXhXhXhXhXhXhXhXhX",
"hXhXhXhXhXhXhXhXhXhXhXhXhXhXhXhXj. XwXfXgXfXfXfXfXfXfXfXgXgXgXtXY.@XuXyXiXyXaXyX!.U.].8X5XW.&./.i.hXhXhXhXhXhXhXhXhXhXhXhXhXhXhX",
"hXhXhXhXhXhXhXhXhXhXhXhXhXhXhXhX..1XwXuXiXgXfXfXgXgXgXfXiXyXaXtXH.H.wX1XyXeX;XyXOX/._.R.A.X.g.K.@.hXhXhXhXhXhXhXhXhXhXhXhXhXhXhX",
"hXhXhXhXhXhXhXhXhXhXhXhXhXhXhXhX|  X9XeXeXiXuXuXiXiXuXeXiXeXeX9X^. .(./.^.eXXXI.U.{.5X6XD.} Z.s.Q hXhXhXhXhXhXhXhXhXhXhXhXhXhXhX",
"hXhXhXhXhXhXhXhXhXhXhXhXhXhXhXhXf !.8X8X8XwX8XuX8XaXwX8XwX8X8X9X.XG.../.[.U.(.4XT.R.(.(.X.t.J.y.hXhXhXhXhXhXhXhXhXhXhXhXhXhXhXhX",
"hXhXhXhXhXhXhXhXhXhXhXhXhXhXhXhXhXS.{.3X7X9X5X8X8XwX9X8X8X8X8X9X4X/.#.g.S.U.[.5X XA._ } ..Z.J./ hXhXhXhXhXhXhXhXhXhXhXhXhXhXhXhX",
"hXhXhXhXhXhXhXhXhXhXhXhXhXhXhXhXhX;.`. X4X4X+X8X9X5X7X8X8X4X4X3X{.[.!...@.} u.p.C.j.R d.K.K.o.f hXhXhXhXhXhXhXhXhXhXhXhXhXhXhXhX",
"hXhXhXhXhXhXhXhXhXhXhXhXhXhXhXhXhX1 A.{. X].3X X7X9X4X5X.X4X3X{.[.[.{.I.J.f.) ( W { J.E.I.K.G hXhXhXhXhXhXhXhXhXhXhXhXhXhXhXhXhX",
"hXhXhXhXhXhXhXhXhXhXhXhXhXhXhXhXhXhX~ !.[.[.{.[.[.1X[. X].[.[.[.[.|.)./.(.U.P.P.K.U.U.K.K. .hXhXhXhXhXhXhXhXhXhXhXhXhXhXhXhXhXhX",
"hXhXhXhXhXhXhXhXhXhXhXhXhXhXhXhXhXhXhXk.'.~.).[.[.|.[.[.[.[.[.[.].(.(././././.(./.R.L.Z.i.! hXhXhXhXhXhXhXhXhXhXhXhXhXhXhXhXhXhX",
"hXhXhXhXhXhXhXhXhXhXhXhXhXhXhXhXhXhXhXhX#.K.P.R.U./.(././.)./.!./.U.U.E.U.U.I./.I.Z.J.i.~ hXhXhXhXhXhXhXhXhXhXhXhXhXhXhXhXhXhXhX",
"hXhXhXhXhXhXhXhXhXhXhXhXhXhXhXhXhXhXhXhXhX) Z.K.J.L.L.K.R.U.U.K.U.U.U.Y.U.L.L.s.a.s.a.! hXhXhXhXhXhXhXhXhXhXhXhXhXhXhXhXhXhXhXhX",
"hXhXhXhXhXhXhXhXhXhXhXhXhXhXhXhXhXhXhXhXhXhX/ t.a.Z.K.K.L.K.Z.s.d.K.L.Z.J.Z.d.o.i.@.! hXhXhXhXhXhXhXhXhXhXhXhXhXhXhXhXhXhXhXhXhX",
"hXhXhXhXhXhXhXhXhXhXhXhXhXhXhXhXhXhXhXhXhXhXhXg U ) y.a.Z.s.Z.Z.t.` f.s.a.t._ Q ! hXhXhXhXhXhXhXhXhXhXhXhXhXhXhXhXhXhXhXhXhXhXhX",
"hXhXhXhXhXhXhXhXhXhXhXhXhXhXhXhXhXhXhXhXhXhXhXhXhXhXp Y U ) ` ) _ R Q T T p v hXhXhXhXhXhXhXhXhXhXhXhXhXhXhXhXhXhXhXhXhXhXhXhXhX",
"hXhXhXhXhXhXhXhXhXhXhXhXhXhXhXhXhXhXhXhXhXhXhXhXhXhXhXI J q 2 $ 8 # ; K K hXhXhXhXhXhXhXhXhXhXhXhXhXhXhXhXhXhXhXhXhXhXhXhXhXhXhX",
"hXhXhXhXhXhXhXhXhXhXhXhXhXhXhXhXhXhXhXhXhXhXhXhX4.~ ] ] P J hXhXhX~ ' l.l.3.hXhXhXhXhXhXhXhXhXhXhXhXhXhXhXhXhXhXhXhXhXhXhXhXhXhX",
"hXhXhXhXhXhXhXhXhXhXhXhXhXhXhXhXhXhXhXhXhXhXhXhX2.' c.2.hXhXhX3.m.3.m.c.3.~ hXhXhXhXhXhXhXhXhXhXhXhXhXhXhXhXhXhXhXhXhXhXhXhXhXhX",
"hXhXhXhXhXhXhXhXhXhXhXhXhXhXhXhXhXhXhXhXhXhXhXhXhXhXhXhXhXhXhXhX$ ~ -.hXhXhXhXhXhXhXhXhXhXhXhXhXhXhXhXhXhXhXhXhXhXhXhXhXhXhXhXhX",
"hXhXhXhXhXhXhXhXhXhXhXhXhXhXhXhXhXhXhXhXhXhXhXhXhXhXhXhXhXhXhXhXhXhXhXhXhXhXhXhXhXhXhXhXhXhXhXhXhXhXhXhXhXhXhXhXhXhXhXhXhXhXhXhX",
"hXhXhXhXhXhXhXhXhXhXhXhXhXhXhXhXhXhXhXhXhXhXhXhXhXhXhXhXhXhXhXhXhXhXhXhXhXhXhXhXhXhXhXhXhXhXhXhXhXhXhXhXhXhXhXhXhXhXhXhXhXhXhXhX",
"hXhXhXhXhXhXhXhXhXhXhXhXhXhXhXhXhXhXhXhXhXhXhXhXhXhXhXhXhXhXhXhXhXhXhXhXhXhXhXhXhXhXhXhXhXhXhXhXhXhXhXhXhXhXhXhXhXhXhXhXhXhXhXhX",
"hXhXhXhXhXhXhXhXhXhXhXhXhXhXhXhXhXhXhXhXhXhXhXhXhXhXhXhXhXhXhXhXhXhXhXhXhXhXhXhXhXhXhXhXhXhXhXhXhXhXhXhXhXhXhXhXhXhXhXhXhXhXhXhX",
"hXhXhXhXhXhXhXhXhXhXhXhXhXhXhXhXhXhXhXhXhXhXhXhXhXhXhXhXhXhXhXhXhXhXhXhXhXhXhXhXhXhXhXhXhXhXhXhXhXhXhXhXhXhXhXhXhXhXhXhXhXhXhXhX",
"hXhXhXhXhXhXhXhXhXhXhXhXhXhXhXhXhXhXhXhXhXhXhXhXhXhXhXhXhXhXhXhXhXhXhXhXhXhXhXhXhXhXhXhXhXhXhXhXhXhXhXhXhXhXhXhXhXhXhXhXhXhXhXhX",
"hXhXhXhXhXhXhXhXhXhXhXhXhXhXhXhXhXhXhXhXhXhXhXhXhXhXhXhXhXhXhXhXhXhXhXhXhXhXhXhXhXhXhXhXhXhXhXhXhXhXhXhXhXhXhXhXhXhXhXhXhXhXhXhX",
"hXhXhXhXhXhXhXhXhXhXhXhXhXhXhXhXhXhXhXhXhXhXhXhXhXhXhXhXhXhXhXhXhXhXhXhXhXhXhXhXhXhXhXhXhXhXhXhXhXhXhXhXhXhXhXhXhXhXhXhXhXhXhXhX",
"hXhXhXhXhXhXhXhXhXhXhXhXhXhXhXhXhXhXhXhXhXhXhXhXhXhXhXhXhXhXhXhXhXhXhXhXhXhXhXhXhXhXhXhXhXhXhXhXhXhXhXhXhXhXhXhXhXhXhXhXhXhXhXhX",
"hXhXhXhXhXhXhXhXhXhXhXhXhXhXhXhXhXhXhXhXhXhXhXhXhXhXhXhXhXhXhXhXhXhXhXhXhXhXhXhXhXhXhXhXhXhXhXhXhXhXhXhXhXhXhXhXhXhXhXhXhXhXhXhX"
};
