/* XPM */
static const char *salida_64[] = {
/* columns rows colors chars-per-pixel */
"64 64 224 2 ",
"   c #341616",
".  c #3B1C1B",
"X  c #341A1B",
"o  c #3E211F",
"O  c #3B2222",
"+  c #3D2B2C",
"@  c #411E1A",
"#  c #4B251D",
"$  c #43211E",
"%  c #552B1D",
"&  c #5C2B1A",
"*  c #572719",
"=  c #59311E",
"-  c #63341E",
";  c #69351E",
":  c #6E3A1F",
">  c #67381F",
",  c #723D1E",
"<  c #632F1E",
"1  c #462A26",
"2  c #5B2D21",
"3  c #5D3323",
"4  c #5B382C",
"5  c #573528",
"6  c #483737",
"7  c #573C35",
"8  c #412F30",
"9  c #643522",
"0  c #6A3623",
"q  c #653923",
"w  c #6C3B23",
"e  c #663D2A",
"r  c #723D23",
"t  c #783F23",
"y  c #71401F",
"u  c #55403C",
"i  c #6E4124",
"p  c #6E422C",
"a  c #754225",
"s  c #7A4425",
"d  c #7C4926",
"f  c #744429",
"g  c #7B4629",
"h  c #754A2B",
"j  c #7D4B2B",
"k  c #7B522B",
"l  c #7C5433",
"z  c #755538",
"x  c #754D33",
"c  c #544443",
"v  c #834C25",
"b  c #824C2A",
"n  c #884D2A",
"m  c #85522C",
"M  c #8B542C",
"N  c #855A2D",
"B  c #8C592D",
"V  c #8E5527",
"C  c #91562B",
"Z  c #945A2D",
"A  c #9B5E2D",
"S  c #855432",
"D  c #8D5632",
"F  c #8D5B32",
"G  c #885C38",
"H  c #935C31",
"J  c #9B5E31",
"K  c #814C30",
"L  c #96622E",
"P  c #9C632E",
"I  c #9A692E",
"U  c #8E6134",
"Y  c #8B6139",
"T  c #956334",
"R  c #9B6433",
"E  c #9C6A33",
"W  c #9B6539",
"Q  c #9D6B3A",
"!  c #956738",
"~  c #9C723B",
"^  c #997038",
"/  c #A46A2D",
"(  c #AD732E",
")  c #B2792E",
"_  c #A26632",
"`  c #A36C33",
"'  c #AA6F34",
"]  c #A36C39",
"[  c #AA6F3A",
"{  c #A77333",
"}  c #AC7334",
"|  c #AE7934",
" . c #A3733B",
".. c #AB743B",
"X. c #AC7B3B",
"o. c #A77B3F",
"O. c #B17535",
"+. c #B47B35",
"@. c #B97D35",
"#. c #B17639",
"$. c #B47B3B",
"%. c #B97D3A",
"&. c #8B6543",
"*. c #9F6F41",
"=. c #9E7242",
"-. c #89715E",
";. c #8D7052",
":. c #A37441",
">. c #A77D45",
",. c #B47D41",
"<. c #857366",
"1. c #836F62",
"2. c #BB8434",
"3. c #B5823C",
"4. c #BC833C",
"5. c #BC893D",
"6. c #B58033",
"7. c #A78139",
"8. c #C2863C",
"9. c #C48B3C",
"0. c #C78A3B",
"q. c #C3913D",
"w. c #CB933D",
"e. c #CC993E",
"r. c #D2953D",
"t. c #D39B3D",
"y. c #DBA13E",
"u. c #DFA93F",
"i. c #B68243",
"p. c #B98443",
"a. c #BD8D4B",
"s. c #B98D46",
"d. c #BD9456",
"f. c #B68A4C",
"g. c #948577",
"h. c #B19A76",
"j. c #C38C42",
"k. c #C38A44",
"l. c #C49243",
"z. c #CA9542",
"x. c #CD9B45",
"c. c #C4944A",
"v. c #CD9B4C",
"b. c #C6984B",
"n. c #D39D43",
"m. c #D19C4D",
"M. c #D69D44",
"N. c #CD9B55",
"B. c #CB9E58",
"V. c #C69A56",
"C. c #D09E51",
"Z. c #CFA149",
"A. c #D5A344",
"S. c #DBA443",
"D. c #DEAB45",
"F. c #D4A44A",
"G. c #DBAC4B",
"H. c #D7A84B",
"J. c #DDB24D",
"K. c #CCA35B",
"L. c #D2A153",
"P. c #D3A65A",
"I. c #D4AA5C",
"U. c #DAAD5D",
"Y. c #D6AB55",
"T. c #DDB152",
"R. c #DCB15E",
"E. c #E1AB44",
"W. c #E2AE4B",
"Q. c #E0A742",
"!. c #E6B346",
"~. c #E4B44C",
"^. c #E9B54C",
"/. c #E5B94E",
"(. c #EBBB4C",
"). c #E3B551",
"_. c #E6BA52",
"`. c #EBBC52",
"'. c #ECBE58",
"]. c #D5AD62",
"[. c #DBB362",
"{. c #DBB769",
"}. c #CFB16E",
"|. c #E1BE6F",
" X c #EEC24E",
".X c #F1C24F",
"XX c #EEC253",
"oX c #EEC35A",
"OX c #F2C553",
"+X c #F4CB55",
"@X c #F1C45B",
"#X c #F5CB5A",
"$X c #F8CF57",
"%X c #F9D059",
"&X c #F7D156",
"*X c #DDC174",
"=X c #E3C16E",
"-X c #E4C572",
";X c #E7CA76",
":X c #E9CC7A",
">X c #E8CD7A",
",X c #9D958D",
"<X c #A39C8F",
"1X c #A29C92",
"2X c #A5A195",
"3X c #B0A599",
"4X c #BEBCB1",
"5X c #B4B1AC",
"6X c #C7C5BB",
"7X c #E8CD80",
"8X c #C7C5C2",
"9X c #D4D5C9",
"0X c #DADBCE",
"qX c #D1D2C5",
"wX c #DDDED3",
"eX c #DDE0D4",
"rX c #E3E4DC",
"tX c #EBEBE6",
"yX c #F2F2EC",
"uX c #F8F9F5",
"iX c #FFFFFF",
"pX c #F5F5F2",
"aX c None",
"sX c black",
/* pixels */
"aXaXaXaXaXaXaXaXaXaXaXaXaXaXaXaXaXaXaXaXaXaXaXaXaXaXaXaXaXaXaXaXaXaXaXaXaXaXaXaXaXaXaXaXaXaXaXaXaXaXaXaXaXaXaXaXaXaXaXaXaXaXaXaX",
"aXaXaXaXaXaXaXaXaXaXaXaXaXaXaXaXaXaXaXaXaXaXaXaXaXaXaXaXaXaXaXaXaXaXaXaXaXaXaXaXaXaXaXaXaXaXaXaXaXaXaXaXaXaXaXaXaXaXaXaXaXaXaXaX",
"aXaXaXaXaXaXaXaXaXaXaXaXaXaXaXaXaXaXaXaXaXaXaXaXaXaXaXaXaXaXaXaXaXaXaXaXaXaXaXaXaXaXaXaXaXaXaXaXaXaXaXaXaXaXaXaXaXaXaXaXaXaXaXaX",
"aXaXaXaXaXaXaXaXaXaXaXaXaXaXaXaXaXaXaXaXaXaXaXaXaXaXaXaXaXaXaXaXaXaXaXaXaXaXaXaXaXaXaXaXaXaXaXaXaXaXaXaXaXaXaXaXaXaXaXaXaXaXaXaX",
"aXaXaXaXaXaXaXaXaXaXaXaXaXaXaXaXaXaXaXaXaXaXaXaXaXaXaXaXaXaXaXaXaXaXaXaXaXaXaXaXaXaXaXaXaXaXaXaXaXaXaXaXaXaXaXaXaXaXaXaXaXaXaXaX",
"aXaXaXaXaXaXaXaXaXaXaXaXaXaXaXaXaXaXaXaXaXaXaXaXaXaXaXaXaXaXaXaXaXaXaXaXaXaXaXaXaXaXaXaXaXaXaXaXaXaXaXaXaXaXaXaXaXaXaXaXaXaXaXaX",
"aXaXaXaXaXaXaXaXaXaXaXaXaXaXaXaXaXaXaXaXaXaXaXaXaXaXaXaXaXaXaXaXaXaXaXaXaXaXaXaXaXaXaXaXaXaXaXaXaXaXaXaXaXaXaXaXaXaXaXaXaXaXaXaX",
"aXaXaXaXaXaXaXaXaXaXaXaXaXaXaXaXaXaXaXaXaXaXaXaXaXaXaXaXaXaXaXaXaXaXaXaXaXaXaXaXaXaXaXaXaXaXaXaXaXaXaXaXaXaXaXaXaXaXaXaXaXaXaXaX",
"aXaXaXaXaXaXaXaXaXaXaXaXaXaXaXaXaXaXaXaXaXaXaXaXaXaXaXaXaXaXaXaXaXaXaXaXaXaXaXaXaXaXaXaXaXaXaXaXaXaXaXaXaXaXaXaXaXaXaXaXaXaXaXaX",
"aXaXaXaXaXaXaXaXaXaXaXaXaXaXaXaXaXaXaXaXaXaXaXaXaXaXaXaXaXaXaXaXaXaXaXaXaXaXaXaXaXaXaXaXaXaXaXaXaXaXaXaXaXaXaXaXaXaXaXaXaXaXaXaX",
"aXaXaXaXaXaXaXaXaXaXaXaXaXaXaXaXaXaXaXaXaXaXaXaXaXaXaXaXaXaXaXaXaXaXaXaXaXaXaXaXaXaXaXaXaXaXaXaXaXaXaXaXaXaXaXaXaXaXaXaXaXaXaXaX",
"aXaXaXaXaXaXaXaXaXaXaXaXaXaXaXaXaXaXaXaXaXaXaXaXaXaXaXaXaXaXaXaXaXaXaXaXaXaXaXaXaXaXaXaXaXaXaXaXaXaXaXaXaXaXaXaXaXaXaXaXaXaXaXaX",
"aXaXaXaXaXaXaXaXaXaXaXaXaXaXaXaXaXaXaXaXaXaXaXaXaX1 4 4 4 z &.z x &.&.x 4 4 4 aXaXaXaXaXaXaXaXaXaXaXaXaXaXaXaXaXaXaXaXaXaXaXaXaX",
"aXaXaXaXaXaXaXaXaXaXaXaXaXaXaXaXaXaXaXaXc 6 % - q s } +.b.c.z.G.4.~.F.` | 2.| B i 2 6 c aXaXaXaXaXaXaXaXaXaXaXaXaXaXaXaXaXaXaXaX",
"aXaXaXaXaXaXaXaXaXaXaXaXaXaXaXaXaXaX5 e T $.A.A.4.A C 3.b._.A.F.`.^.6.n.E.OX).c.{ x.z.Q e 5 aXaXaXaXaXaXaXaXaXaXaXaXaXaXaXaXaXaX",
"aXaXaXaXaXaXaXaXaXaXaXaXaXaXaX1 % v 4.@./ z.W.!.(.T...z.^.9._.2.#Xq.W.^..XXXE ).^.OXA.} 4.4.v = 1 aXaXaXaXaXaXaXaXaXaXaXaXaXaXaX",
"aXaXaXaXaXaXaXaXaXaXaXaXaX1 e ..z.(.^.E.@Xl.+.^./.OXW.P W.OX+.0.x.#Xt.w.$X9.T.(.OX/.#.G.`.XXOXW.p.l 1 aXaXaXaXaXaXaXaXaXaXaXaXaX",
"aXaXaXaXaXaXaXaXaXaXaX1 m } n.n.q.@.z.A._.OX).+.XXt.'.9...n.4.A [ x.} 9.b.9.!.OX@X{ ~.XX^.x.4.2.z.w.+.D 1 aXaXaXaXaXaXaXaXaXaXaX",
"aXaXaXaXaXaXaXaXl >.:.a ` n.A.w.XXL.` 9.t.y.^.9./ +.{ m - , , t r r s , : ` 8.F.E 4.E.W.2.A H.OXG.2.+.} j =.=.aXaXaXaXaXaXaXaXaX",
"aXaXaXaXaXaXaXaXaXQ | 4.8.w.D.r.@.XXl.w.4.0.#.S g g j H E E E B n n R R B j b j w R 9.%._ x.A.4.j.J.G.H.n.$.T h.aXaXaXaXaXaXaXaX",
"aXaXaXaXaXaXaXaXq $.O.@.+.@.F.^.( l.S.} i.a s _ J B M B J B R } ' H : M b B M J _ d 9 r >.^.O.5.OXF.( } } @.j.w aXaXaXaXaXaXaXaX",
"aXaXaXaXaXaXaX4 R 5.).(.(.+Xn.9.@.n Q ` %.h D m g f M M B b f 9 9 S Q ' [ W f n m H R B a.s.X.OX2.z._.`.t.9.P ..e aXaXaXaXaXaXaX",
"aXaXaXaXaXaX1 k W.x.+.} 4.F.OXz.s w a j ] f r m m W H M N <.5X8X8X5X<.M m H Q m b s b d Y.a F.l.8.S.^.Z.5.^.H.( s 1 aXaXaXaXaXaX",
"aXaXaXaXaXaXN p.I q.`.@Xn./ 8.R & W T N j M ` T p : b g 1XyXiXiXiXiXyX,Xj b ; w W E M r s.r H.s R 0.+.n.@XXXXX^.} q aXaXaXaXaXaX",
"aXaXaXaXaX4 _ / ^.+X@XW.y.0.s g D S [ R C M d g g g ; # tXiXiXiXiXiXiXrX% ; s g g w ] H N r G M m s %.y.W.XXOXXXD.@.3 aXaXaXaXaX",
"aXaXaXaXO M 3.oXH.} ( @.@.R b n J : R s t a s W G *.;.6XuXiXiXiXiXiXiXiX6X;.*.G W ; 0 r b d M b B w Z @.L O.+.+.x.x...o aXaXaXaX",
"aXaXaXaXq z.G.2.J.`./.H._ h Z b T D M 0 f D >.p.i.c.-.tXiXiXiXiXiXiXiXiXtX-.v.p.i.:.S B q r n D d J i n x./.(./.w.{ k.h aXaXaXaX",
"aXaXaXaXF { 5.).x.6.w.0.` - j [ m d - G :.V.c.U.L.d.3XpXiXiXiXiXiXiXiXiXpX3Xd.L.b.B.B.,.Q Y s ; W H 3 C w.^.^.+Xw.r.E :.u aXaXaX",
"aXaXaX7 j l.A.` @.@.$.%.Z w s m v S :.a.K.-X[.N.N.>.6XiXiXiXiXiXiXiXiXiXiX8X>.m.v.U.L.P.B.V.j 9 g s w C %.3.3.XXoX4.z.D h aXaXaX",
"aXaXaX7 @.W.} 8.!.(.^.0.m w q q 9 :.i.V.L.[.:Xv.N.g.9XiXiXiXiXiXiXiXiXiXiX9Xg.L.C.j.c.U.U.a.:.w 9 - w b 2.!.D.9.oXA.} } % aXaXaX",
"aXaXaXj z.L @.^.$X+X.XW.L w g f Y ,.P.U.v.m.L.v.N.,XwXiXiXiXiXiXiXiXiXiXiXwX,XN.v.P.L.P.R.[.a.U j w q M W.XXXXOX+.OXF.T W aXaXaX",
"aXaXaXB $.m q.%X^.2.) ( 3.% g G p.].=XP.m.m.v.v.N.,XwXiXiXiXiXiXiXiXiXiXiXeX,XN.v.v.v.v.L.U.U.a.~ g % ` ( E.y.%X).q.!.B m aXaXaX",
"aXaXaX- D ` /.H.( `.).H.{ 3 s :.V.{.{.[.U.L.m.v.N.,XwXuXiXiXiXiXiXiXiXiXyX0X,XN.v.v.v.N.L.|.-XV.=.f w { T.OXQ.e.(.+.A.w.q aXaXaX",
"aXaXaXB ` w.D./ J.T.@.S.~.i.q ..B.;X-XP.m.v.m.v.N.g.9XtXiXiXiXiXiXiXiXiXtX9Xg.N.v.v.v.v.Y.=X>XK.:.q } t.w.v.OXe.(.{ ! t.g aXaXaX",
"aXaXaXi.j n.8.z.`.( ~.+.b.x.` G i.P.>X;XY.U.v.v.$.-.4X0XyXiXiXiXiXiXiXyX0X4X1.%.v.v.U.|.>X>X[.p.S ` Q.G.$XH.`._.S.{ h 5...aXaXaX",
"aXaXaXo.3 F.L `.8.r.n./.(.(.D.` h ,.P.=X-X;X-XL.4.B ,X9X0XrXuXuXuXuXrXwX9X,XF 4.v.U.=X[.;X;Xv.l ] S.OX).G.OXl.'.Q.{ j e U aXaXaX",
"aXaXaX. i b.s OX6.E.+X~.XXG.2.@.V s a.P.-X>X>X-Xv.#.G <X6XqX0X0X0X0XqX6X<X&.' v.v.P.[.>X-XB.S B n.+X(.XXF.+Xq._.S.{ s q . aXaXaX",
"aXaXaX6 M j 0 9.) XXD.+Xw.t.W./.E.$.h U f.K.-X>XU.L.3.&.1.1X2X2X2X2X1X1.Y X.k.v.-X-X=X].^ h o.' r.u.(..XZ.(./.T w.m a s 6 aXaXaX",
"aXaXaX8 m a a m / W.D.G.9.D.!.^.`.F.~.3.w =.N.[.-X-XL.$._ N N N m N M ` %.b.U.=X{.{.>.S { w.A.^.v.t.OX^.x.S.~.N _ d a s u aXaXaX",
"aXaXaX8 # D m s : 0.).} ~.$XE.oXF.OX(.E.4.` N l i.d.|.>X[.I.I.V.a.P.U.[.:X|.}.K.l k ` 4.Q.Q.r.H.&XZ.w.y.x.n.~.h N R g w 6 aXaXaX",
"aXaXaXaX. 9 V Z - n.z.E OXG.OX9.(.Q.+Xv.t.(.OXT.R a x ;.K.I.I.-X>X>X>X*X;.z s Z L.'.OXt.v.+X(.r.$X#X+.t.b.9.x.- R r s % aXaXaXaX",
"aXaXaXaXO 2 v #.d w.N _ ^.b.`.q.S.OXG.D.$X`.3.w.(.^.n.Z ~ ~ ~ N k ~ ~  .4.4.F.(.F.3.x.OX~.F.+X^.A./.( w.L 4.T Z a j m O aXaXaXaX",
"aXaXaXaXaX3 b ' E Q m Z $. .G.7.S.`.w.XX^.4.n.+X&XG.5._..Xm.z.^.A.(.(.Q.Q./.v.@X+XXX).T.+Xb.H.`.s.z.X.z.w ..M M j n f aXaXaXaXaX",
"aXaXaXaXaX5 Z a | E 9 M M k X.^ 0.S.| `.n.M.+X$XG.3.@X%Xx.3.#X$X+X(.%X+X~.+X).j.l._.%X/.J.` w.M.Y Q j.! a b R - f D 5 aXaXaXaXaX",
"aXaXaXaXaX8 3 b B 8.M G H R g f D M.w x.A.t.u.n.4./..Xx.k.(.J.XX(.OX/.^.^.S.t.XX_.n.9.x.3.m 0.E Z w W R d C a j Z % + aXaXaXaXaX",
"aXaXaXaXaXaX$ r w T E ..Q M J C m v.=  .Q.@.r.t.n.j.#.} /.`.G..Xw._.n.w.`.D.+.j.9.9.R R B > k.m C b L } q r w J q @ aXaXaXaXaXaX",
"aXaXaXaXaXaXaX# b - Z M %.#.d ] ..m m Z  .B @.: q d 4.z. .H.(.5.B ^.I Z V l.z.b.! - g F Z A j b H $.` w % j R r # aXaXaXaXaXaXaX",
"aXaXaXaXaXaXaX. 2 r a D j %.#.> i d R } n b w M M h U  .S.n.I m d 5.n.S D g * >.^ - C C @.4.#.,.' d * j j b j b $ aXaXaXaXaXaXaX",
"aXaXaXaXaXaXaXaXX 2 b j q a _ W j %.E m a w b r B b p p.X.y F } ' M | j 9 r b m n m n R ..} M a j b J Z a 0 r   aXaXaXaXaXaXaXaX",
"aXaXaXaXaXaXaXaXaX. 9 W O.s #.} _ v ` 4.%.#.$.%._ V M M P 4.8.4.%.j s C ' %.#.Q t M b a M M ..H d L M v D 0 . aXaXaXaXaXaXaXaXaX",
"aXaXaXaXaXaXaXaXaXaXO * ` 4.M 4.O.R s n n V C v d B E I I I & a a & d Z E I v _ #.M n #.9.} a b _ M W R % O aXaXaXaXaXaXaXaXaXaX",
"aXaXaXaXaXaXaXaXaXaXaXaX5 ] ` S T @.` r g w q M A M m - w b M _ P A A P X.| #.%.R M O.} L m Z P C L R 5 aXaXaXaXaXaXaXaXaXaXaXaX",
"aXaXaXaXaXaXaXaXaXaXaXaXaX@ 9 M s d Z M $.} M j } 4.+.$.A w i E #.O.O.| ` Z d b n B d a d b A n b b @ aXaXaXaXaXaXaXaXaXaXaXaXaX",
"aXaXaXaXaXaXaXaXaXaXaXaXaXaXX # w b a n j } 8._ B f Z O.%.#.} R a r r w - - 0 t g s B M r a M q # . aXaXaXaXaXaXaXaXaXaXaXaXaXaX",
"aXaXaXaXaXaXaXaXaXaXaXaXaXaXaXaXO . p 9 9 K H } #.Z b s s d A A J n s a ; n C C M b 0 2 9 h . + aXaXaXaXaXaXaXaXaXaXaXaXaXaXaXaX",
"aXaXaXaXaXaXaXaXaXaXaXaXaXaXaXaXaXaXaX      . % * & j M M M b & * j f r b ; ; < 2 .       aXaXaXaXaXaXaXaXaXaXaXaXaXaXaXaXaXaXaX",
"aXaXaXaXaXaXaXaXaXaXaXaXaXaXaXaXaXaXaXaXaXaXaXaXX @ @ @ @ @ @ @ @ . @ @ @ @ @ X aXaXaXaXaXaXaXaXaXaXaXaXaXaXaXaXaXaXaXaXaXaXaXaX",
"aXaXaXaXaXaXaXaXaXaXaXaXaXaXaXaXaXaXaXaXaXaXaXaXaXaXaXaXaXaXaXaXaXaXaXaXaXaXaXaXaXaXaXaXaXaXaXaXaXaXaXaXaXaXaXaXaXaXaXaXaXaXaXaX",
"aXaXaXaXaXaXaXaXaXaXaXaXaXaXaXaXaXaXaXaXaXaXaXaXaXaXaXaXaXaXaXaXaXaXaXaXaXaXaXaXaXaXaXaXaXaXaXaXaXaXaXaXaXaXaXaXaXaXaXaXaXaXaXaX",
"aXaXaXaXaXaXaXaXaXaXaXaXaXaXaXaXaXaXaXaXaXaXaXaXaXaXaXaXaXaXaXaXaXaXaXaXaXaXaXaXaXaXaXaXaXaXaXaXaXaXaXaXaXaXaXaXaXaXaXaXaXaXaXaX",
"aXaXaXaXaXaXaXaXaXaXaXaXaXaXaXaXaXaXaXaXaXaXaXaXaXaXaXaXaXaXaXaXaXaXaXaXaXaXaXaXaXaXaXaXaXaXaXaXaXaXaXaXaXaXaXaXaXaXaXaXaXaXaXaX",
"aXaXaXaXaXaXaXaXaXaXaXaXaXaXaXaXaXaXaXaXaXaXaXaXaXaXaXaXaXaXaXaXaXaXaXaXaXaXaXaXaXaXaXaXaXaXaXaXaXaXaXaXaXaXaXaXaXaXaXaXaXaXaXaX",
"aXaXaXaXaXaXaXaXaXaXaXaXaXaXaXaXaXaXaXaXaXaXaXaXaXaXaXaXaXaXaXaXaXaXaXaXaXaXaXaXaXaXaXaXaXaXaXaXaXaXaXaXaXaXaXaXaXaXaXaXaXaXaXaX",
"aXaXaXaXaXaXaXaXaXaXaXaXaXaXaXaXaXaXaXaXaXaXaXaXaXaXaXaXaXaXaXaXaXaXaXaXaXaXaXaXaXaXaXaXaXaXaXaXaXaXaXaXaXaXaXaXaXaXaXaXaXaXaXaX"
};
