/* XPM */
static const char *suelo_64[] = {
/* columns rows colors chars-per-pixel */
"64 64 68 1 ",
"  c #257F1B",
". c #247E26",
"X c #267F2C",
"o c #267F31",
"O c #268414",
"+ c #26831D",
"@ c #29851D",
"# c #2B8B1B",
"$ c #268421",
"% c #298323",
"& c #2B8B20",
"* c #26832B",
"= c #2A842C",
"- c #27882B",
"; c #318D2F",
": c #268132",
"> c #298333",
", c #2D8D33",
"< c #328E31",
"1 c #45A51E",
"2 c #429F2A",
"3 c #429D34",
"4 c #429E39",
"5 c #46A624",
"6 c #48A726",
"7 c #47A920",
"8 c #4AAA26",
"9 c #46A52A",
"0 c #49A72C",
"q c #47AA2B",
"w c #4BAA28",
"e c #4CAB29",
"r c #4EAB29",
"t c #4BAC29",
"y c #4CAD28",
"u c #4DAE2B",
"i c #48A82D",
"p c #49A82E",
"a c #4CAA2E",
"s c #4AAD2C",
"d c #4CAD2C",
"f c #4CB02A",
"g c #46A432",
"h c #44A136",
"j c #46A434",
"k c #48A731",
"l c #4AA637",
"z c #47A930",
"x c #4AA830",
"c c #4FAB30",
"v c #49A834",
"b c #4CA936",
"n c #4BAD36",
"m c #46A138",
"M c #47A439",
"N c #46A23D",
"B c #48A638",
"V c #48A33C",
"C c #4AA73D",
"Z c #4BA939",
"A c #4CAA3A",
"S c #4DAC38",
"D c #4BA83E",
"F c #4CA93E",
"G c #4EAC3C",
"H c #50AB32",
"J c #54AD37",
"K c #54AD38",
/* pixels */
"88888888888ww88w888888888w888888888888888888888888888888w8888888",
"888888yy88w888888888888w8888888888888888ww888888888888y888888888",
"88888y=#88888888888888jB88888888888888=#ww888888888888bZw8888888",
"8888w>>w88888888888888>88w88888888888w>w88888888888888:y88888888",
"88888:D8888888888888O$C88888888888888>C8888888888888O$C888888888",
"88888*xw888888888888@Xx88888888888888:i8888888888888+*d*8888888w",
"88888888888888888888888888888888888888888888888888888888888y888w",
"888888888888i88y888888888888i888888888888888i888888888888888i88w",
"88888888888+w88888888w88888@088w88888888888+t88888888888ww8@dy8w",
"88888888888.y8Z8888888y8881&88gw88888888888.88B888888888881@88Gw",
"8888888888wZy%8888y8888888oh8*888888888888tZ8-y8w888888888:By.y8",
"8888888888wZyN888888888888>i8S888888888888wZyN888888888888>ien8w",
"888888888888w8888888888888886w88888888888888w88w8888888888888w88",
"w888888888888888888888888888888888888888888888888888888888888888",
"8888888888888888888888888888888888888888888888888888888888888888",
"88888888888888888888888888888888y888888888888888888888888w888888",
"8888888888888888888888888w8888888888888888888888888888888y888888",
"8888888888888888888888888888888888888888888888888888888888888888",
"y88888h 888888888888888h88888888888888j@888888888888888j88888888",
"y8wd88=y88888888888y88o888888888888dy6>yt8888888888868>888w8888y",
"y888+yDsAw8y8888w8888wF6888888888688@yC5v888888888888wD888w88888",
"8888+6sX8888888888w885i8888888888868+wy:w888888888888wi88888888w",
"w88w88888w88w888888888888888888888888888888ww8888888888w888w888w",
"88888888ww8w08888w88888888888888888888888w88i8888888888888888888",
"88888888ww8@y8888888888888888888888888888w8%y888888888888888888w",
"w8888w8888y%8w6w8888888w888988888888888888y=8w5w8ww888888889888w",
"8888888888y:65>88888888886w3e%888888888888y>68:88888888888wh8%y8",
"8888888888yl83>88888888888868C88y8888888888By4:88888888888888V88",
"888www888888ywl88888888888w80b88888888888w8i8yB88888888888w88v8w",
"888888888w8888888888888888888688888888888888888888888888888w888w",
"8888888888888888y8888888888888888888888888888888888888888888888w",
"888888y888888888888888888888888888888888888888888888888888888888",
"888888w8888y8888888888888888888888888888w88888888888888888888888",
"88www888888888888888888w88888888888w88w8888888888888886y8w88888w",
"88wwe8h@88888888888w88v#888888888888663#88888888888888h#88888888",
"w8w88y>w8888888888888y:e8688888888888y=6y888888888888t:w88888888",
"w888+dFwZ88888888888O$e9w8888888888w+wtqM88888888888O$wq88888888",
"8888@ad*888w88888w88+Xy-888888888888@fi,888888888888@:i*88888888",
"8888888x88888888888888888888888888888888888888w88888888888888888",
"8888888888w8888888888w888888888888886888888888888888888888888888",
"88888888w88888888888888888888888888w8888888888888w8888888888888w",
"8888888888y988888w8888888888888888888y88888w88888w8888888888888w",
"8888888888y:6wy88888888888w88y888888888888to8858888888888888888w",
"8888888888el8@*88888888888898m8888888888888B8@v88888888888828m8w",
"8888888888808%>888888888888iyw8888888888888w8$8888888888888i8e88",
"8888888888888888888888888888888888888888888888888888888888888888",
"8888888888888888888888888888888888888888888888888888888888888888",
"888888w8888y8888888888888888888888888888w88888888888888888888888",
"888888888888888888888888888888888888888w888888888888888888888888",
"88888888e8888888888888888y88888888888888888888888888888888888888",
"88888888@k888w888888888888888888888888885z8888888888888888888888",
"88888888>=88w88888888887o888888888888888:88888888888888888888888",
"888888+8:%8Mw88888888+8$y8888888888888A$Zw88888888888wi88#888888",
"888888=*yo:8888888888:yow888888888888889t8888888888888;w<8888888",
"8888888x8kv888888888888x8888888888888888y8888888888888i8x8888888",
"8888888888888888888888888888888888888888888888888888888888888888",
"8888888888888888888888888888888888888888y88888888888888888888888",
"8888888888888888888888888888888888888888888888888888888888888888",
"888888888888888888888888888888y888888888888888888888888888888888",
"888888888888888888888888888888888888888888888888888888888888K888",
"88888888888888888888888888888888888888888888888888888888888JHH88",
"888888888888888888888888888888888888888888888888888888888888c888",
"8888888888888888888888888888888888888888888888888888888888888888",
"wwwwwww888ew88ww868wwww88w8www8w8w88w8wwwwe88w88w8ww8w8w88888888"
};
